<svg id="visual" viewBox="0 0 960 540" width="960" height="540" xmlns="http://www.w3.org/2000/svg" xmlns:xlink="http://www.w3.org/1999/xlink" version="1.1"><rect x="0" y="0" width="960" height="540" fill="#001220"></rect><defs><linearGradient id="grad1_0" x1="43.8%" y1="100%" x2="100%" y2="0%"><stop offset="14.444444444444446%" stop-color="#fbae3c" stop-opacity="1"></stop><stop offset="85.55555555555554%" stop-color="#fbae3c" stop-opacity="1"></stop></linearGradient></defs><defs><linearGradient id="grad1_1" x1="43.8%" y1="100%" x2="100%" y2="0%"><stop offset="14.444444444444446%" stop-color="#fbae3c" stop-opacity="1"></stop><stop offset="85.55555555555554%" stop-color="#f48350" stop-opacity="1"></stop></linearGradient></defs><defs><linearGradient id="grad1_2" x1="43.8%" y1="100%" x2="100%" y2="0%"><stop offset="14.444444444444446%" stop-color="#d96162" stop-opacity="1"></stop><stop offset="85.55555555555554%" stop-color="#f48350" stop-opacity="1"></stop></linearGradient></defs><defs><linearGradient id="grad1_3" x1="43.8%" y1="100%" x2="100%" y2="0%"><stop offset="14.444444444444446%" stop-color="#d96162" stop-opacity="1"></stop><stop offset="85.55555555555554%" stop-color="#af4b6d" stop-opacity="1"></stop></linearGradient></defs><defs><linearGradient id="grad1_4" x1="43.8%" y1="100%" x2="100%" y2="0%"><stop offset="14.444444444444446%" stop-color="#7c3e6b" stop-opacity="1"></stop><stop offset="85.55555555555554%" stop-color="#af4b6d" stop-opacity="1"></stop></linearGradient></defs><defs><linearGradient id="grad1_5" x1="43.8%" y1="100%" x2="100%" y2="0%"><stop offset="14.444444444444446%" stop-color="#7c3e6b" stop-opacity="1"></stop><stop offset="85.55555555555554%" stop-color="#49335c" stop-opacity="1"></stop></linearGradient></defs><defs><linearGradient id="grad1_6" x1="43.8%" y1="100%" x2="100%" y2="0%"><stop offset="14.444444444444446%" stop-color="#1d2540" stop-opacity="1"></stop><stop offset="85.55555555555554%" stop-color="#49335c" stop-opacity="1"></stop></linearGradient></defs><defs><linearGradient id="grad1_7" x1="43.8%" y1="100%" x2="100%" y2="0%"><stop offset="14.444444444444446%" stop-color="#1d2540" stop-opacity="1"></stop><stop offset="85.55555555555554%" stop-color="#001220" stop-opacity="1"></stop></linearGradient></defs><defs><linearGradient id="grad2_0" x1="0%" y1="100%" x2="56.3%" y2="0%"><stop offset="14.444444444444446%" stop-color="#fbae3c" stop-opacity="1"></stop><stop offset="85.55555555555554%" stop-color="#fbae3c" stop-opacity="1"></stop></linearGradient></defs><defs><linearGradient id="grad2_1" x1="0%" y1="100%" x2="56.3%" y2="0%"><stop offset="14.444444444444446%" stop-color="#f48350" stop-opacity="1"></stop><stop offset="85.55555555555554%" stop-color="#fbae3c" stop-opacity="1"></stop></linearGradient></defs><defs><linearGradient id="grad2_2" x1="0%" y1="100%" x2="56.3%" y2="0%"><stop offset="14.444444444444446%" stop-color="#f48350" stop-opacity="1"></stop><stop offset="85.55555555555554%" stop-color="#d96162" stop-opacity="1"></stop></linearGradient></defs><defs><linearGradient id="grad2_3" x1="0%" y1="100%" x2="56.3%" y2="0%"><stop offset="14.444444444444446%" stop-color="#af4b6d" stop-opacity="1"></stop><stop offset="85.55555555555554%" stop-color="#d96162" stop-opacity="1"></stop></linearGradient></defs><defs><linearGradient id="grad2_4" x1="0%" y1="100%" x2="56.3%" y2="0%"><stop offset="14.444444444444446%" stop-color="#af4b6d" stop-opacity="1"></stop><stop offset="85.55555555555554%" stop-color="#7c3e6b" stop-opacity="1"></stop></linearGradient></defs><defs><linearGradient id="grad2_5" x1="0%" y1="100%" x2="56.3%" y2="0%"><stop offset="14.444444444444446%" stop-color="#49335c" stop-opacity="1"></stop><stop offset="85.55555555555554%" stop-color="#7c3e6b" stop-opacity="1"></stop></linearGradient></defs><defs><linearGradient id="grad2_6" x1="0%" y1="100%" x2="56.3%" y2="0%"><stop offset="14.444444444444446%" stop-color="#49335c" stop-opacity="1"></stop><stop offset="85.55555555555554%" stop-color="#1d2540" stop-opacity="1"></stop></linearGradient></defs><defs><linearGradient id="grad2_7" x1="0%" y1="100%" x2="56.3%" y2="0%"><stop offset="14.444444444444446%" stop-color="#001220" stop-opacity="1"></stop><stop offset="85.55555555555554%" stop-color="#1d2540" stop-opacity="1"></stop></linearGradient></defs><g transform="translate(960, 540)"><path d="M-432 0C-421.5 -76.9 -410.9 -153.8 -374.1 -216C-337.3 -278.2 -274.2 -325.8 -207.5 -359.4C-140.8 -393 -70.4 -412.5 0 -432L0 0Z" fill="#0c1c30"></path><path d="M-378 0C-368.8 -67.3 -359.6 -134.5 -327.4 -189C-295.2 -243.5 -240 -285.1 -181.6 -314.5C-123.2 -343.8 -61.6 -360.9 0 -378L0 0Z" fill="#312c4f"></path><path d="M-324 0C-316.1 -57.7 -308.2 -115.3 -280.6 -162C-253 -208.7 -205.7 -244.4 -155.6 -269.6C-105.6 -294.7 -52.8 -309.4 0 -324L0 0Z" fill="#623965"></path><path d="M-270 0C-263.4 -48 -256.8 -96.1 -233.8 -135C-210.8 -173.9 -171.4 -203.7 -129.7 -224.6C-88 -245.6 -44 -257.8 0 -270L0 0Z" fill="#96446e"></path><path d="M-216 0C-210.7 -38.4 -205.5 -76.9 -187.1 -108C-168.7 -139.1 -137.1 -162.9 -103.8 -179.7C-70.4 -196.5 -35.2 -206.2 0 -216L0 0Z" fill="#c55469"></path><path d="M-162 0C-158 -28.8 -154.1 -57.7 -140.3 -81C-126.5 -104.3 -102.8 -122.2 -77.8 -134.8C-52.8 -147.4 -26.4 -154.7 0 -162L0 0Z" fill="#e9705a"></path><path d="M-108 0C-105.4 -19.2 -102.7 -38.4 -93.5 -54C-84.3 -69.6 -68.6 -81.5 -51.9 -89.9C-35.2 -98.2 -17.6 -103.1 0 -108L0 0Z" fill="#fa9845"></path><path d="M-54 0C-52.7 -9.6 -51.4 -19.2 -46.8 -27C-42.2 -34.8 -34.3 -40.7 -25.9 -44.9C-17.6 -49.1 -8.8 -51.6 0 -54L0 0Z" fill="#fbae3c"></path></g><g transform="translate(0, 0)"><path d="M432 0C421.9 77.7 411.9 155.4 374.1 216C336.4 276.6 271 320.2 204 353.3C137 386.5 68.5 409.2 0 432L0 0Z" fill="#0c1c30"></path><path d="M378 0C369.2 68 360.4 136 327.4 189C294.3 242 237.1 280.2 178.5 309.2C119.9 338.2 60 358.1 0 378L0 0Z" fill="#312c4f"></path><path d="M324 0C316.4 58.3 308.9 116.5 280.6 162C252.3 207.5 203.2 240.1 153 265C102.8 289.9 51.4 306.9 0 324L0 0Z" fill="#623965"></path><path d="M270 0C263.7 48.6 257.4 97.1 233.8 135C210.2 172.9 169.4 200.1 127.5 220.8C85.6 241.6 42.8 255.8 0 270L0 0Z" fill="#96446e"></path><path d="M216 0C211 38.8 205.9 77.7 187.1 108C168.2 138.3 135.5 160.1 102 176.7C68.5 193.2 34.3 204.6 0 216L0 0Z" fill="#c55469"></path><path d="M162 0C158.2 29.1 154.4 58.3 140.3 81C126.1 103.7 101.6 120.1 76.5 132.5C51.4 144.9 25.7 153.5 0 162L0 0Z" fill="#e9705a"></path><path d="M108 0C105.5 19.4 103 38.8 93.5 54C84.1 69.2 67.7 80 51 88.3C34.3 96.6 17.1 102.3 0 108L0 0Z" fill="#fa9845"></path><path d="M54 0C52.7 9.7 51.5 19.4 46.8 27C42 34.6 33.9 40 25.5 44.2C17.1 48.3 8.6 51.2 0 54L0 0Z" fill="#fbae3c"></path></g></svg>