<svg id="visual" viewBox="0 0 960 540" width="960" height="540" xmlns="http://www.w3.org/2000/svg" xmlns:xlink="http://www.w3.org/1999/xlink" version="1.1"><rect x="0" y="0" width="960" height="540" fill="#14213D"></rect><path d="M0 300L16 306.2C32 312.3 64 324.7 96 329.5C128 334.3 160 331.7 192 327.3C224 323 256 317 288 319.8C320 322.7 352 334.3 384 336.7C416 339 448 332 480 330.2C512 328.3 544 331.7 576 331.8C608 332 640 329 672 326.3C704 323.7 736 321.3 768 325.8C800 330.3 832 341.7 864 345.3C896 349 928 345 944 343L960 341L960 541L944 541C928 541 896 541 864 541C832 541 800 541 768 541C736 541 704 541 672 541C640 541 608 541 576 541C544 541 512 541 480 541C448 541 416 541 384 541C352 541 320 541 288 541C256 541 224 541 192 541C160 541 128 541 96 541C64 541 32 541 16 541L0 541Z" fill="#14213d"></path><path d="M0 368L16 365.7C32 363.3 64 358.7 96 353.2C128 347.7 160 341.3 192 340.2C224 339 256 343 288 343.5C320 344 352 341 384 341.7C416 342.3 448 346.7 480 349.3C512 352 544 353 576 348.7C608 344.3 640 334.7 672 337.3C704 340 736 355 768 357.3C800 359.7 832 349.3 864 345C896 340.7 928 342.3 944 343.2L960 344L960 541L944 541C928 541 896 541 864 541C832 541 800 541 768 541C736 541 704 541 672 541C640 541 608 541 576 541C544 541 512 541 480 541C448 541 416 541 384 541C352 541 320 541 288 541C256 541 224 541 192 541C160 541 128 541 96 541C64 541 32 541 16 541L0 541Z" fill="#151f38"></path><path d="M0 350L16 350.5C32 351 64 352 96 357.3C128 362.7 160 372.3 192 378.3C224 384.3 256 386.7 288 381.2C320 375.7 352 362.3 384 355.8C416 349.3 448 349.7 480 350.2C512 350.7 544 351.3 576 357.5C608 363.7 640 375.3 672 383C704 390.7 736 394.3 768 389.5C800 384.7 832 371.3 864 367.8C896 364.3 928 370.7 944 373.8L960 377L960 541L944 541C928 541 896 541 864 541C832 541 800 541 768 541C736 541 704 541 672 541C640 541 608 541 576 541C544 541 512 541 480 541C448 541 416 541 384 541C352 541 320 541 288 541C256 541 224 541 192 541C160 541 128 541 96 541C64 541 32 541 16 541L0 541Z" fill="#161d32"></path><path d="M0 390L16 387.3C32 384.7 64 379.3 96 377.8C128 376.3 160 378.7 192 386.2C224 393.7 256 406.3 288 413C320 419.7 352 420.3 384 416.3C416 412.3 448 403.7 480 403.2C512 402.7 544 410.3 576 411.7C608 413 640 408 672 404.8C704 401.7 736 400.3 768 398.7C800 397 832 395 864 394.3C896 393.7 928 394.3 944 394.7L960 395L960 541L944 541C928 541 896 541 864 541C832 541 800 541 768 541C736 541 704 541 672 541C640 541 608 541 576 541C544 541 512 541 480 541C448 541 416 541 384 541C352 541 320 541 288 541C256 541 224 541 192 541C160 541 128 541 96 541C64 541 32 541 16 541L0 541Z" fill="#161c2d"></path><path d="M0 406L16 406.3C32 406.7 64 407.3 96 408.3C128 409.3 160 410.7 192 411.3C224 412 256 412 288 412.5C320 413 352 414 384 412.8C416 411.7 448 408.3 480 407.5C512 406.7 544 408.3 576 408.8C608 409.3 640 408.7 672 413.7C704 418.7 736 429.3 768 433.8C800 438.3 832 436.7 864 435C896 433.3 928 431.7 944 430.8L960 430L960 541L944 541C928 541 896 541 864 541C832 541 800 541 768 541C736 541 704 541 672 541C640 541 608 541 576 541C544 541 512 541 480 541C448 541 416 541 384 541C352 541 320 541 288 541C256 541 224 541 192 541C160 541 128 541 96 541C64 541 32 541 16 541L0 541Z" fill="#161a28"></path><path d="M0 441L16 439.2C32 437.3 64 433.7 96 434.8C128 436 160 442 192 444.2C224 446.3 256 444.7 288 441.2C320 437.7 352 432.3 384 430C416 427.7 448 428.3 480 430C512 431.7 544 434.3 576 437.5C608 440.7 640 444.3 672 446.3C704 448.3 736 448.7 768 448.5C800 448.3 832 447.7 864 444C896 440.3 928 433.7 944 430.3L960 427L960 541L944 541C928 541 896 541 864 541C832 541 800 541 768 541C736 541 704 541 672 541C640 541 608 541 576 541C544 541 512 541 480 541C448 541 416 541 384 541C352 541 320 541 288 541C256 541 224 541 192 541C160 541 128 541 96 541C64 541 32 541 16 541L0 541Z" fill="#161923"></path><path d="M0 483L16 478.7C32 474.3 64 465.7 96 463.3C128 461 160 465 192 466.5C224 468 256 467 288 464.3C320 461.7 352 457.3 384 454.5C416 451.7 448 450.3 480 453.3C512 456.3 544 463.7 576 464.3C608 465 640 459 672 455.3C704 451.7 736 450.3 768 452.5C800 454.7 832 460.3 864 464.5C896 468.7 928 471.3 944 472.7L960 474L960 541L944 541C928 541 896 541 864 541C832 541 800 541 768 541C736 541 704 541 672 541C640 541 608 541 576 541C544 541 512 541 480 541C448 541 416 541 384 541C352 541 320 541 288 541C256 541 224 541 192 541C160 541 128 541 96 541C64 541 32 541 16 541L0 541Z" fill="#16171e"></path><path d="M0 496L16 497.3C32 498.7 64 501.3 96 499.3C128 497.3 160 490.7 192 486.8C224 483 256 482 288 480.7C320 479.3 352 477.7 384 479.5C416 481.3 448 486.7 480 487C512 487.3 544 482.7 576 484.7C608 486.7 640 495.3 672 498.8C704 502.3 736 500.7 768 497C800 493.3 832 487.7 864 483.7C896 479.7 928 477.3 944 476.2L960 475L960 541L944 541C928 541 896 541 864 541C832 541 800 541 768 541C736 541 704 541 672 541C640 541 608 541 576 541C544 541 512 541 480 541C448 541 416 541 384 541C352 541 320 541 288 541C256 541 224 541 192 541C160 541 128 541 96 541C64 541 32 541 16 541L0 541Z" fill="#151619"></path><path d="M0 518L16 517C32 516 64 514 96 514.7C128 515.3 160 518.7 192 520.5C224 522.3 256 522.7 288 521C320 519.3 352 515.7 384 513C416 510.3 448 508.7 480 508.7C512 508.7 544 510.3 576 512.3C608 514.3 640 516.7 672 518.2C704 519.7 736 520.3 768 519.8C800 519.3 832 517.7 864 517.8C896 518 928 520 944 521L960 522L960 541L944 541C928 541 896 541 864 541C832 541 800 541 768 541C736 541 704 541 672 541C640 541 608 541 576 541C544 541 512 541 480 541C448 541 416 541 384 541C352 541 320 541 288 541C256 541 224 541 192 541C160 541 128 541 96 541C64 541 32 541 16 541L0 541Z" fill="#141414"></path></svg>