<svg id="visual" viewBox="0 0 960 540" width="960" height="540" xmlns="http://www.w3.org/2000/svg" xmlns:xlink="http://www.w3.org/1999/xlink" version="1.1"><rect x="0" y="0" width="960" height="540" fill="#14213D"></rect><path d="M0 238L16 231.8C32 225.7 64 213.3 96 208.5C128 203.7 160 206.3 192 210.7C224 215 256 221 288 218.2C320 215.3 352 203.7 384 201.3C416 199 448 206 480 207.8C512 209.7 544 206.3 576 206.2C608 206 640 209 672 211.7C704 214.3 736 216.7 768 212.2C800 207.7 832 196.3 864 192.7C896 189 928 193 944 195L960 197L960 0L944 0C928 0 896 0 864 0C832 0 800 0 768 0C736 0 704 0 672 0C640 0 608 0 576 0C544 0 512 0 480 0C448 0 416 0 384 0C352 0 320 0 288 0C256 0 224 0 192 0C160 0 128 0 96 0C64 0 32 0 16 0L0 0Z" fill="#14213d"></path><path d="M0 170L16 172.3C32 174.7 64 179.3 96 184.8C128 190.3 160 196.7 192 197.8C224 199 256 195 288 194.5C320 194 352 197 384 196.3C416 195.7 448 191.3 480 188.7C512 186 544 185 576 189.3C608 193.7 640 203.3 672 200.7C704 198 736 183 768 180.7C800 178.3 832 188.7 864 193C896 197.3 928 195.7 944 194.8L960 194L960 0L944 0C928 0 896 0 864 0C832 0 800 0 768 0C736 0 704 0 672 0C640 0 608 0 576 0C544 0 512 0 480 0C448 0 416 0 384 0C352 0 320 0 288 0C256 0 224 0 192 0C160 0 128 0 96 0C64 0 32 0 16 0L0 0Z" fill="#151f38"></path><path d="M0 188L16 187.5C32 187 64 186 96 180.7C128 175.3 160 165.7 192 159.7C224 153.7 256 151.3 288 156.8C320 162.3 352 175.7 384 182.2C416 188.7 448 188.3 480 187.8C512 187.3 544 186.7 576 180.5C608 174.3 640 162.7 672 155C704 147.3 736 143.7 768 148.5C800 153.3 832 166.7 864 170.2C896 173.7 928 167.3 944 164.2L960 161L960 0L944 0C928 0 896 0 864 0C832 0 800 0 768 0C736 0 704 0 672 0C640 0 608 0 576 0C544 0 512 0 480 0C448 0 416 0 384 0C352 0 320 0 288 0C256 0 224 0 192 0C160 0 128 0 96 0C64 0 32 0 16 0L0 0Z" fill="#161d32"></path><path d="M0 148L16 150.7C32 153.3 64 158.7 96 160.2C128 161.7 160 159.3 192 151.8C224 144.3 256 131.7 288 125C320 118.3 352 117.7 384 121.7C416 125.7 448 134.3 480 134.8C512 135.3 544 127.7 576 126.3C608 125 640 130 672 133.2C704 136.3 736 137.7 768 139.3C800 141 832 143 864 143.7C896 144.3 928 143.7 944 143.3L960 143L960 0L944 0C928 0 896 0 864 0C832 0 800 0 768 0C736 0 704 0 672 0C640 0 608 0 576 0C544 0 512 0 480 0C448 0 416 0 384 0C352 0 320 0 288 0C256 0 224 0 192 0C160 0 128 0 96 0C64 0 32 0 16 0L0 0Z" fill="#161c2d"></path><path d="M0 132L16 131.7C32 131.3 64 130.7 96 129.7C128 128.7 160 127.3 192 126.7C224 126 256 126 288 125.5C320 125 352 124 384 125.2C416 126.3 448 129.7 480 130.5C512 131.3 544 129.7 576 129.2C608 128.7 640 129.3 672 124.3C704 119.3 736 108.7 768 104.2C800 99.7 832 101.3 864 103C896 104.7 928 106.3 944 107.2L960 108L960 0L944 0C928 0 896 0 864 0C832 0 800 0 768 0C736 0 704 0 672 0C640 0 608 0 576 0C544 0 512 0 480 0C448 0 416 0 384 0C352 0 320 0 288 0C256 0 224 0 192 0C160 0 128 0 96 0C64 0 32 0 16 0L0 0Z" fill="#161a28"></path><path d="M0 97L16 98.8C32 100.7 64 104.3 96 103.2C128 102 160 96 192 93.8C224 91.7 256 93.3 288 96.8C320 100.3 352 105.7 384 108C416 110.3 448 109.7 480 108C512 106.3 544 103.7 576 100.5C608 97.3 640 93.7 672 91.7C704 89.7 736 89.3 768 89.5C800 89.7 832 90.3 864 94C896 97.7 928 104.3 944 107.7L960 111L960 0L944 0C928 0 896 0 864 0C832 0 800 0 768 0C736 0 704 0 672 0C640 0 608 0 576 0C544 0 512 0 480 0C448 0 416 0 384 0C352 0 320 0 288 0C256 0 224 0 192 0C160 0 128 0 96 0C64 0 32 0 16 0L0 0Z" fill="#161923"></path><path d="M0 55L16 59.3C32 63.7 64 72.3 96 74.7C128 77 160 73 192 71.5C224 70 256 71 288 73.7C320 76.3 352 80.7 384 83.5C416 86.3 448 87.7 480 84.7C512 81.7 544 74.3 576 73.7C608 73 640 79 672 82.7C704 86.3 736 87.7 768 85.5C800 83.3 832 77.7 864 73.5C896 69.3 928 66.7 944 65.3L960 64L960 0L944 0C928 0 896 0 864 0C832 0 800 0 768 0C736 0 704 0 672 0C640 0 608 0 576 0C544 0 512 0 480 0C448 0 416 0 384 0C352 0 320 0 288 0C256 0 224 0 192 0C160 0 128 0 96 0C64 0 32 0 16 0L0 0Z" fill="#16171e"></path><path d="M0 42L16 40.7C32 39.3 64 36.7 96 38.7C128 40.7 160 47.3 192 51.2C224 55 256 56 288 57.3C320 58.7 352 60.3 384 58.5C416 56.7 448 51.3 480 51C512 50.7 544 55.3 576 53.3C608 51.3 640 42.7 672 39.2C704 35.7 736 37.3 768 41C800 44.7 832 50.3 864 54.3C896 58.3 928 60.7 944 61.8L960 63L960 0L944 0C928 0 896 0 864 0C832 0 800 0 768 0C736 0 704 0 672 0C640 0 608 0 576 0C544 0 512 0 480 0C448 0 416 0 384 0C352 0 320 0 288 0C256 0 224 0 192 0C160 0 128 0 96 0C64 0 32 0 16 0L0 0Z" fill="#151619"></path><path d="M0 20L16 21C32 22 64 24 96 23.3C128 22.7 160 19.3 192 17.5C224 15.7 256 15.3 288 17C320 18.7 352 22.3 384 25C416 27.7 448 29.3 480 29.3C512 29.3 544 27.7 576 25.7C608 23.7 640 21.3 672 19.8C704 18.3 736 17.7 768 18.2C800 18.7 832 20.3 864 20.2C896 20 928 18 944 17L960 16L960 0L944 0C928 0 896 0 864 0C832 0 800 0 768 0C736 0 704 0 672 0C640 0 608 0 576 0C544 0 512 0 480 0C448 0 416 0 384 0C352 0 320 0 288 0C256 0 224 0 192 0C160 0 128 0 96 0C64 0 32 0 16 0L0 0Z" fill="#141414"></path></svg>