<svg id="visual" viewBox="0 0 960 540" width="960" height="540" xmlns="http://www.w3.org/2000/svg" xmlns:xlink="http://www.w3.org/1999/xlink" version="1.1"><rect x="0" y="0" width="960" height="540" fill="#14213D"></rect><path d="M0 150L14.5 149.2C29 148.3 58 146.7 87.2 149.5C116.3 152.3 145.7 159.7 174.8 158.3C204 157 233 147 262 145.8C291 144.7 320 152.3 349 152.8C378 153.3 407 146.7 436.2 144.2C465.3 141.7 494.7 143.3 523.8 144C553 144.7 582 144.3 611 141C640 137.7 669 131.3 698 137.7C727 144 756 163 785.2 165.2C814.3 167.3 843.7 152.7 872.8 147.2C902 141.7 931 145.3 945.5 147.2L960 149L960 0L945.5 0C931 0 902 0 872.8 0C843.7 0 814.3 0 785.2 0C756 0 727 0 698 0C669 0 640 0 611 0C582 0 553 0 523.8 0C494.7 0 465.3 0 436.2 0C407 0 378 0 349 0C320 0 291 0 262 0C233 0 204 0 174.8 0C145.7 0 116.3 0 87.2 0C58 0 29 0 14.5 0L0 0Z" fill="#14213d"></path><path d="M0 158L14.5 154C29 150 58 142 87.2 135.7C116.3 129.3 145.7 124.7 174.8 126.7C204 128.7 233 137.3 262 137.8C291 138.3 320 130.7 349 133C378 135.3 407 147.7 436.2 145.5C465.3 143.3 494.7 126.7 523.8 125.2C553 123.7 582 137.3 611 140.5C640 143.7 669 136.3 698 137.5C727 138.7 756 148.3 785.2 150.2C814.3 152 843.7 146 872.8 144.5C902 143 931 146 945.5 147.5L960 149L960 0L945.5 0C931 0 902 0 872.8 0C843.7 0 814.3 0 785.2 0C756 0 727 0 698 0C669 0 640 0 611 0C582 0 553 0 523.8 0C494.7 0 465.3 0 436.2 0C407 0 378 0 349 0C320 0 291 0 262 0C233 0 204 0 174.8 0C145.7 0 116.3 0 87.2 0C58 0 29 0 14.5 0L0 0Z" fill="#2b2948"></path><path d="M0 94L14.5 98.3C29 102.7 58 111.3 87.2 118C116.3 124.7 145.7 129.3 174.8 129.3C204 129.3 233 124.7 262 120.8C291 117 320 114 349 112.8C378 111.7 407 112.3 436.2 111.7C465.3 111 494.7 109 523.8 113C553 117 582 127 611 129.8C640 132.7 669 128.3 698 122.2C727 116 756 108 785.2 105.2C814.3 102.3 843.7 104.7 872.8 104C902 103.3 931 99.7 945.5 97.8L960 96L960 0L945.5 0C931 0 902 0 872.8 0C843.7 0 814.3 0 785.2 0C756 0 727 0 698 0C669 0 640 0 611 0C582 0 553 0 523.8 0C494.7 0 465.3 0 436.2 0C407 0 378 0 349 0C320 0 291 0 262 0C233 0 204 0 174.8 0C145.7 0 116.3 0 87.2 0C58 0 29 0 14.5 0L0 0Z" fill="#403152"></path><path d="M0 123L14.5 119.7C29 116.3 58 109.7 87.2 106.2C116.3 102.7 145.7 102.3 174.8 105.8C204 109.3 233 116.7 262 118C291 119.3 320 114.7 349 111C378 107.3 407 104.7 436.2 103.7C465.3 102.7 494.7 103.3 523.8 100.3C553 97.3 582 90.7 611 92.8C640 95 669 106 698 108C727 110 756 103 785.2 104.3C814.3 105.7 843.7 115.3 872.8 117.5C902 119.7 931 114.3 945.5 111.7L960 109L960 0L945.5 0C931 0 902 0 872.8 0C843.7 0 814.3 0 785.2 0C756 0 727 0 698 0C669 0 640 0 611 0C582 0 553 0 523.8 0C494.7 0 465.3 0 436.2 0C407 0 378 0 349 0C320 0 291 0 262 0C233 0 204 0 174.8 0C145.7 0 116.3 0 87.2 0C58 0 29 0 14.5 0L0 0Z" fill="#56395a"></path><path d="M0 68L14.5 68.7C29 69.3 58 70.7 87.2 74.5C116.3 78.3 145.7 84.7 174.8 85C204 85.3 233 79.7 262 81.8C291 84 320 94 349 97.3C378 100.7 407 97.3 436.2 94.2C465.3 91 494.7 88 523.8 89.8C553 91.7 582 98.3 611 98.3C640 98.3 669 91.7 698 85.3C727 79 756 73 785.2 72.5C814.3 72 843.7 77 872.8 82.3C902 87.7 931 93.3 945.5 96.2L960 99L960 0L945.5 0C931 0 902 0 872.8 0C843.7 0 814.3 0 785.2 0C756 0 727 0 698 0C669 0 640 0 611 0C582 0 553 0 523.8 0C494.7 0 465.3 0 436.2 0C407 0 378 0 349 0C320 0 291 0 262 0C233 0 204 0 174.8 0C145.7 0 116.3 0 87.2 0C58 0 29 0 14.5 0L0 0Z" fill="#6c4160"></path><path d="M0 58L14.5 57.8C29 57.7 58 57.3 87.2 60.2C116.3 63 145.7 69 174.8 70.7C204 72.3 233 69.7 262 70.5C291 71.3 320 75.7 349 76.8C378 78 407 76 436.2 72.7C465.3 69.3 494.7 64.7 523.8 64.2C553 63.7 582 67.3 611 71.3C640 75.3 669 79.7 698 80C727 80.3 756 76.7 785.2 77.3C814.3 78 843.7 83 872.8 83.8C902 84.7 931 81.3 945.5 79.7L960 78L960 0L945.5 0C931 0 902 0 872.8 0C843.7 0 814.3 0 785.2 0C756 0 727 0 698 0C669 0 640 0 611 0C582 0 553 0 523.8 0C494.7 0 465.3 0 436.2 0C407 0 378 0 349 0C320 0 291 0 262 0C233 0 204 0 174.8 0C145.7 0 116.3 0 87.2 0C58 0 29 0 14.5 0L0 0Z" fill="#814a64"></path><path d="M0 46L14.5 48.2C29 50.3 58 54.7 87.2 58.3C116.3 62 145.7 65 174.8 62.7C204 60.3 233 52.7 262 48.5C291 44.3 320 43.7 349 44.7C378 45.7 407 48.3 436.2 51C465.3 53.7 494.7 56.3 523.8 58.3C553 60.3 582 61.7 611 61.8C640 62 669 61 698 61.3C727 61.7 756 63.3 785.2 60.2C814.3 57 843.7 49 872.8 47.3C902 45.7 931 50.3 945.5 52.7L960 55L960 0L945.5 0C931 0 902 0 872.8 0C843.7 0 814.3 0 785.2 0C756 0 727 0 698 0C669 0 640 0 611 0C582 0 553 0 523.8 0C494.7 0 465.3 0 436.2 0C407 0 378 0 349 0C320 0 291 0 262 0C233 0 204 0 174.8 0C145.7 0 116.3 0 87.2 0C58 0 29 0 14.5 0L0 0Z" fill="#955467"></path><path d="M0 25L14.5 25.8C29 26.7 58 28.3 87.2 29.2C116.3 30 145.7 30 174.8 33.3C204 36.7 233 43.3 262 44.8C291 46.3 320 42.7 349 39.8C378 37 407 35 436.2 34.5C465.3 34 494.7 35 523.8 33.8C553 32.7 582 29.3 611 30.5C640 31.7 669 37.3 698 39.3C727 41.3 756 39.7 785.2 38.3C814.3 37 843.7 36 872.8 34.5C902 33 931 31 945.5 30L960 29L960 0L945.5 0C931 0 902 0 872.8 0C843.7 0 814.3 0 785.2 0C756 0 727 0 698 0C669 0 640 0 611 0C582 0 553 0 523.8 0C494.7 0 465.3 0 436.2 0C407 0 378 0 349 0C320 0 291 0 262 0C233 0 204 0 174.8 0C145.7 0 116.3 0 87.2 0C58 0 29 0 14.5 0L0 0Z" fill="#a76068"></path><path d="M0 18L14.5 19.8C29 21.7 58 25.3 87.2 27.5C116.3 29.7 145.7 30.3 174.8 29.2C204 28 233 25 262 24.7C291 24.3 320 26.7 349 25.2C378 23.7 407 18.3 436.2 16.8C465.3 15.3 494.7 17.7 523.8 19.8C553 22 582 24 611 23.7C640 23.3 669 20.7 698 19.3C727 18 756 18 785.2 19.8C814.3 21.7 843.7 25.3 872.8 25.2C902 25 931 21 945.5 19L960 17L960 0L945.5 0C931 0 902 0 872.8 0C843.7 0 814.3 0 785.2 0C756 0 727 0 698 0C669 0 640 0 611 0C582 0 553 0 523.8 0C494.7 0 465.3 0 436.2 0C407 0 378 0 349 0C320 0 291 0 262 0C233 0 204 0 174.8 0C145.7 0 116.3 0 87.2 0C58 0 29 0 14.5 0L0 0Z" fill="#b76d68"></path></svg>