<svg id="visual" viewBox="0 0 960 540" width="960" height="540" xmlns="http://www.w3.org/2000/svg" xmlns:xlink="http://www.w3.org/1999/xlink" version="1.1"><rect x="0" y="0" width="960" height="540" fill="#121420"></rect><path d="M0 170L16 166.7C32 163.3 64 156.7 96 154.7C128 152.7 160 155.3 192 155.8C224 156.3 256 154.7 288 152.8C320 151 352 149 384 149.7C416 150.3 448 153.7 480 155.5C512 157.3 544 157.7 576 159.5C608 161.3 640 164.7 672 169C704 173.3 736 178.7 768 177.2C800 175.7 832 167.3 864 166C896 164.7 928 170.3 944 173.2L960 176L960 0L944 0C928 0 896 0 864 0C832 0 800 0 768 0C736 0 704 0 672 0C640 0 608 0 576 0C544 0 512 0 480 0C448 0 416 0 384 0C352 0 320 0 288 0C256 0 224 0 192 0C160 0 128 0 96 0C64 0 32 0 16 0L0 0Z" fill="#121420"></path><path d="M0 149L16 148.2C32 147.3 64 145.7 96 149.2C128 152.7 160 161.3 192 163C224 164.7 256 159.3 288 158.7C320 158 352 162 384 160.5C416 159 448 152 480 150.8C512 149.7 544 154.3 576 156.2C608 158 640 157 672 153.5C704 150 736 144 768 139.5C800 135 832 132 864 131.3C896 130.7 928 132.3 944 133.2L960 134L960 0L944 0C928 0 896 0 864 0C832 0 800 0 768 0C736 0 704 0 672 0C640 0 608 0 576 0C544 0 512 0 480 0C448 0 416 0 384 0C352 0 320 0 288 0C256 0 224 0 192 0C160 0 128 0 96 0C64 0 32 0 16 0L0 0Z" fill="#211f2f"></path><path d="M0 148L16 142.5C32 137 64 126 96 120.8C128 115.7 160 116.3 192 117.8C224 119.3 256 121.7 288 121.5C320 121.3 352 118.7 384 119.3C416 120 448 124 480 126C512 128 544 128 576 125.8C608 123.7 640 119.3 672 121.2C704 123 736 131 768 133.7C800 136.3 832 133.7 864 135C896 136.3 928 141.7 944 144.3L960 147L960 0L944 0C928 0 896 0 864 0C832 0 800 0 768 0C736 0 704 0 672 0C640 0 608 0 576 0C544 0 512 0 480 0C448 0 416 0 384 0C352 0 320 0 288 0C256 0 224 0 192 0C160 0 128 0 96 0C64 0 32 0 16 0L0 0Z" fill="#34293d"></path><path d="M0 100L16 104.7C32 109.3 64 118.7 96 120.8C128 123 160 118 192 118.5C224 119 256 125 288 127.7C320 130.3 352 129.7 384 123.7C416 117.7 448 106.3 480 105.3C512 104.3 544 113.7 576 117C608 120.3 640 117.7 672 112.8C704 108 736 101 768 99.8C800 98.7 832 103.3 864 104.5C896 105.7 928 103.3 944 102.2L960 101L960 0L944 0C928 0 896 0 864 0C832 0 800 0 768 0C736 0 704 0 672 0C640 0 608 0 576 0C544 0 512 0 480 0C448 0 416 0 384 0C352 0 320 0 288 0C256 0 224 0 192 0C160 0 128 0 96 0C64 0 32 0 16 0L0 0Z" fill="#493349"></path><path d="M0 98L16 99.3C32 100.7 64 103.3 96 105C128 106.7 160 107.3 192 104.3C224 101.3 256 94.7 288 93.3C320 92 352 96 384 99.7C416 103.3 448 106.7 480 106.7C512 106.7 544 103.3 576 98.5C608 93.7 640 87.3 672 85.7C704 84 736 87 768 88.3C800 89.7 832 89.3 864 90.2C896 91 928 93 944 94L960 95L960 0L944 0C928 0 896 0 864 0C832 0 800 0 768 0C736 0 704 0 672 0C640 0 608 0 576 0C544 0 512 0 480 0C448 0 416 0 384 0C352 0 320 0 288 0C256 0 224 0 192 0C160 0 128 0 96 0C64 0 32 0 16 0L0 0Z" fill="#5f3d54"></path><path d="M0 78L16 78.7C32 79.3 64 80.7 96 79.5C128 78.3 160 74.7 192 73.5C224 72.3 256 73.7 288 75.2C320 76.7 352 78.3 384 76.8C416 75.3 448 70.7 480 72.3C512 74 544 82 576 84.2C608 86.3 640 82.7 672 82.8C704 83 736 87 768 88.7C800 90.3 832 89.7 864 87.8C896 86 928 83 944 81.5L960 80L960 0L944 0C928 0 896 0 864 0C832 0 800 0 768 0C736 0 704 0 672 0C640 0 608 0 576 0C544 0 512 0 480 0C448 0 416 0 384 0C352 0 320 0 288 0C256 0 224 0 192 0C160 0 128 0 96 0C64 0 32 0 16 0L0 0Z" fill="#76475c"></path><path d="M0 48L16 50.5C32 53 64 58 96 57.7C128 57.3 160 51.7 192 49.2C224 46.7 256 47.3 288 50.8C320 54.3 352 60.7 384 60.5C416 60.3 448 53.7 480 53.8C512 54 544 61 576 64C608 67 640 66 672 62.7C704 59.3 736 53.7 768 50.7C800 47.7 832 47.3 864 49.8C896 52.3 928 57.7 944 60.3L960 63L960 0L944 0C928 0 896 0 864 0C832 0 800 0 768 0C736 0 704 0 672 0C640 0 608 0 576 0C544 0 512 0 480 0C448 0 416 0 384 0C352 0 320 0 288 0C256 0 224 0 192 0C160 0 128 0 96 0C64 0 32 0 16 0L0 0Z" fill="#8d5262"></path><path d="M0 45L16 42.3C32 39.7 64 34.3 96 35.3C128 36.3 160 43.7 192 43.7C224 43.7 256 36.3 288 33.3C320 30.3 352 31.7 384 33.5C416 35.3 448 37.7 480 40C512 42.3 544 44.7 576 43.5C608 42.3 640 37.7 672 35.2C704 32.7 736 32.3 768 34C800 35.7 832 39.3 864 41.8C896 44.3 928 45.7 944 46.3L960 47L960 0L944 0C928 0 896 0 864 0C832 0 800 0 768 0C736 0 704 0 672 0C640 0 608 0 576 0C544 0 512 0 480 0C448 0 416 0 384 0C352 0 320 0 288 0C256 0 224 0 192 0C160 0 128 0 96 0C64 0 32 0 16 0L0 0Z" fill="#a35f66"></path><path d="M0 31L16 30C32 29 64 27 96 26.8C128 26.7 160 28.3 192 28.5C224 28.7 256 27.3 288 26.7C320 26 352 26 384 25.5C416 25 448 24 480 23.2C512 22.3 544 21.7 576 22.5C608 23.3 640 25.7 672 27C704 28.3 736 28.7 768 25.8C800 23 832 17 864 15.3C896 13.7 928 16.3 944 17.7L960 19L960 0L944 0C928 0 896 0 864 0C832 0 800 0 768 0C736 0 704 0 672 0C640 0 608 0 576 0C544 0 512 0 480 0C448 0 416 0 384 0C352 0 320 0 288 0C256 0 224 0 192 0C160 0 128 0 96 0C64 0 32 0 16 0L0 0Z" fill="#b76d68"></path></svg>