<svg id="visual" viewBox="0 0 960 440" width="960" height="440" xmlns="http://www.w3.org/2000/svg" xmlns:xlink="http://www.w3.org/1999/xlink" version="1.1"><rect x="0" y="0" width="960" height="440" fill="#121420"></rect><path d="M0 300L16 302.7C32 305.3 64 310.7 96 312.3C128 314 160 312 192 311.5C224 311 256 312 288 313.3C320 314.7 352 316.3 384 315.8C416 315.3 448 312.7 480 311.2C512 309.7 544 309.3 576 308C608 306.7 640 304.3 672 300.8C704 297.3 736 292.7 768 293.8C800 295 832 302 864 303.2C896 304.3 928 299.7 944 297.3L960 295L960 441L944 441C928 441 896 441 864 441C832 441 800 441 768 441C736 441 704 441 672 441C640 441 608 441 576 441C544 441 512 441 480 441C448 441 416 441 384 441C352 441 320 441 288 441C256 441 224 441 192 441C160 441 128 441 96 441C64 441 32 441 16 441L0 441Z" fill="#121420"></path><path d="M0 317L16 317.7C32 318.3 64 319.7 96 316.8C128 314 160 307 192 305.7C224 304.3 256 308.7 288 309.2C320 309.7 352 306.3 384 307.5C416 308.7 448 314.3 480 315.2C512 316 544 312 576 310.5C608 309 640 310 672 312.8C704 315.7 736 320.3 768 324C800 327.7 832 330.3 864 331C896 331.7 928 330.3 944 329.7L960 329L960 441L944 441C928 441 896 441 864 441C832 441 800 441 768 441C736 441 704 441 672 441C640 441 608 441 576 441C544 441 512 441 480 441C448 441 416 441 384 441C352 441 320 441 288 441C256 441 224 441 192 441C160 441 128 441 96 441C64 441 32 441 16 441L0 441Z" fill="#211f2f"></path><path d="M0 318L16 322.5C32 327 64 336 96 340.2C128 344.3 160 343.7 192 342.3C224 341 256 339 288 339.2C320 339.3 352 341.7 384 341.2C416 340.7 448 337.3 480 335.7C512 334 544 334 576 335.7C608 337.3 640 340.7 672 339.2C704 337.7 736 331.3 768 329.3C800 327.3 832 329.7 864 328.5C896 327.3 928 322.7 944 320.3L960 318L960 441L944 441C928 441 896 441 864 441C832 441 800 441 768 441C736 441 704 441 672 441C640 441 608 441 576 441C544 441 512 441 480 441C448 441 416 441 384 441C352 441 320 441 288 441C256 441 224 441 192 441C160 441 128 441 96 441C64 441 32 441 16 441L0 441Z" fill="#34293d"></path><path d="M0 356L16 352.3C32 348.7 64 341.3 96 339.7C128 338 160 342 192 341.5C224 341 256 336 288 333.8C320 331.7 352 332.3 384 337.3C416 342.3 448 351.7 480 352.5C512 353.3 544 345.7 576 343C608 340.3 640 342.7 672 346.7C704 350.7 736 356.3 768 357.3C800 358.3 832 354.7 864 353.7C896 352.7 928 354.3 944 355.2L960 356L960 441L944 441C928 441 896 441 864 441C832 441 800 441 768 441C736 441 704 441 672 441C640 441 608 441 576 441C544 441 512 441 480 441C448 441 416 441 384 441C352 441 320 441 288 441C256 441 224 441 192 441C160 441 128 441 96 441C64 441 32 441 16 441L0 441Z" fill="#493349"></path><path d="M0 359L16 357.8C32 356.7 64 354.3 96 352.8C128 351.3 160 350.7 192 353C224 355.3 256 360.7 288 361.8C320 363 352 360 384 357C416 354 448 351 480 351C512 351 544 354 576 358C608 362 640 367 672 368.3C704 369.7 736 367.3 768 366.2C800 365 832 365 864 364.3C896 363.7 928 362.3 944 361.7L960 361L960 441L944 441C928 441 896 441 864 441C832 441 800 441 768 441C736 441 704 441 672 441C640 441 608 441 576 441C544 441 512 441 480 441C448 441 416 441 384 441C352 441 320 441 288 441C256 441 224 441 192 441C160 441 128 441 96 441C64 441 32 441 16 441L0 441Z" fill="#5f3d54"></path><path d="M0 375L16 374.5C32 374 64 373 96 373.8C128 374.7 160 377.3 192 378.2C224 379 256 378 288 376.8C320 375.7 352 374.3 384 375.7C416 377 448 381 480 379.7C512 378.3 544 371.7 576 369.8C608 368 640 371 672 370.8C704 370.7 736 367.3 768 365.8C800 364.3 832 364.7 864 366.2C896 367.7 928 370.3 944 371.7L960 373L960 441L944 441C928 441 896 441 864 441C832 441 800 441 768 441C736 441 704 441 672 441C640 441 608 441 576 441C544 441 512 441 480 441C448 441 416 441 384 441C352 441 320 441 288 441C256 441 224 441 192 441C160 441 128 441 96 441C64 441 32 441 16 441L0 441Z" fill="#76475c"></path><path d="M0 399L16 397C32 395 64 391 96 391.2C128 391.3 160 395.7 192 397.7C224 399.7 256 399.3 288 396.7C320 394 352 389 384 389.2C416 389.3 448 394.7 480 394.5C512 394.3 544 388.7 576 386.2C608 383.7 640 384.3 672 387C704 389.7 736 394.3 768 396.8C800 399.3 832 399.7 864 397.7C896 395.7 928 391.3 944 389.2L960 387L960 441L944 441C928 441 896 441 864 441C832 441 800 441 768 441C736 441 704 441 672 441C640 441 608 441 576 441C544 441 512 441 480 441C448 441 416 441 384 441C352 441 320 441 288 441C256 441 224 441 192 441C160 441 128 441 96 441C64 441 32 441 16 441L0 441Z" fill="#8d5262"></path><path d="M0 402L16 404C32 406 64 410 96 409.2C128 408.3 160 402.7 192 402.8C224 403 256 409 288 411.3C320 413.7 352 412.3 384 410.7C416 409 448 407 480 405.2C512 403.3 544 401.7 576 402.7C608 403.7 640 407.3 672 409.3C704 411.3 736 411.7 768 410.3C800 409 832 406 864 404C896 402 928 401 944 400.5L960 400L960 441L944 441C928 441 896 441 864 441C832 441 800 441 768 441C736 441 704 441 672 441C640 441 608 441 576 441C544 441 512 441 480 441C448 441 416 441 384 441C352 441 320 441 288 441C256 441 224 441 192 441C160 441 128 441 96 441C64 441 32 441 16 441L0 441Z" fill="#a35f66"></path><path d="M0 413L16 413.8C32 414.7 64 416.3 96 416.5C128 416.7 160 415.3 192 415.2C224 415 256 416 288 416.5C320 417 352 417 384 417.5C416 418 448 419 480 419.7C512 420.3 544 420.7 576 419.8C608 419 640 417 672 416C704 415 736 415 768 417.3C800 419.7 832 424.3 864 425.7C896 427 928 425 944 424L960 423L960 441L944 441C928 441 896 441 864 441C832 441 800 441 768 441C736 441 704 441 672 441C640 441 608 441 576 441C544 441 512 441 480 441C448 441 416 441 384 441C352 441 320 441 288 441C256 441 224 441 192 441C160 441 128 441 96 441C64 441 32 441 16 441L0 441Z" fill="#b76d68"></path></svg>