<svg id="visual" viewBox="0 0 960 540" width="960" height="540" xmlns="http://www.w3.org/2000/svg" xmlns:xlink="http://www.w3.org/1999/xlink" version="1.1"><rect x="0" y="0" width="960" height="540" fill="#F7CACA"></rect><path d="M0 237L80 251L160 205L240 275L320 281L400 237L480 210L560 226L640 186L720 215L800 223L880 250L960 192L960 541L880 541L800 541L720 541L640 541L560 541L480 541L400 541L320 541L240 541L160 541L80 541L0 541Z" fill="#d91607"></path><path d="M0 213L80 213L160 276L240 243L320 220L400 255L480 297L560 305L640 234L720 267L800 302L880 242L960 265L960 541L880 541L800 541L720 541L640 541L560 541L480 541L400 541L320 541L240 541L160 541L80 541L0 541Z" fill="#cf002d"></path><path d="M0 261L80 320L160 254L240 290L320 256L400 253L480 304L560 280L640 253L720 276L800 262L880 273L960 287L960 541L880 541L800 541L720 541L640 541L560 541L480 541L400 541L320 541L240 541L160 541L80 541L0 541Z" fill="#bd0043"></path><path d="M0 304L80 295L160 329L240 340L320 330L400 291L480 326L560 352L640 279L720 325L800 350L880 339L960 319L960 541L880 541L800 541L720 541L640 541L560 541L480 541L400 541L320 541L240 541L160 541L80 541L0 541Z" fill="#a50054"></path><path d="M0 369L80 316L160 324L240 360L320 332L400 366L480 377L560 326L640 367L720 311L800 375L880 330L960 324L960 541L880 541L800 541L720 541L640 541L560 541L480 541L400 541L320 541L240 541L160 541L80 541L0 541Z" fill="#89005e"></path><path d="M0 337L80 368L160 376L240 387L320 368L400 353L480 368L560 379L640 363L720 395L800 399L880 363L960 349L960 541L880 541L800 541L720 541L640 541L560 541L480 541L400 541L320 541L240 541L160 541L80 541L0 541Z" fill="#6a1762"></path><path d="M0 369L80 414L160 394L240 404L320 414L400 413L480 370L560 392L640 415L720 413L800 384L880 376L960 374L960 541L880 541L800 541L720 541L640 541L560 541L480 541L400 541L320 541L240 541L160 541L80 541L0 541Z" fill="#4b205e"></path><path d="M0 437L80 443L160 436L240 415L320 414L400 416L480 414L560 417L640 445L720 417L800 434L880 441L960 400L960 541L880 541L800 541L720 541L640 541L560 541L480 541L400 541L320 541L240 541L160 541L80 541L0 541Z" fill="#2d2254"></path><path d="M0 452L80 430L160 438L240 448L320 438L400 437L480 465L560 446L640 450L720 430L800 454L880 464L960 443L960 541L880 541L800 541L720 541L640 541L560 541L480 541L400 541L320 541L240 541L160 541L80 541L0 541Z" fill="#141f45"></path><path d="M0 475L80 493L160 487L240 464L320 479L400 484L480 465L560 466L640 462L720 471L800 479L880 460L960 480L960 541L880 541L800 541L720 541L640 541L560 541L480 541L400 541L320 541L240 541L160 541L80 541L0 541Z" fill="#031a33"></path><path d="M0 497L80 494L160 499L240 512L320 517L400 508L480 501L560 508L640 510L720 504L800 512L880 505L960 510L960 541L880 541L800 541L720 541L640 541L560 541L480 541L400 541L320 541L240 541L160 541L80 541L0 541Z" fill="#001220"></path></svg>