<svg id="visual" viewBox="0 0 900 450" width="900" height="450" xmlns="http://www.w3.org/2000/svg" xmlns:xlink="http://www.w3.org/1999/xlink" version="1.1"><rect x="0" y="0" width="900" height="450" fill="#27024b"></rect><path d="M0 328L30 324.5C60 321 120 314 180 309.2C240 304.3 300 301.7 360 300.5C420 299.3 480 299.7 540 302.8C600 306 660 312 720 311.7C780 311.3 840 304.7 870 301.3L900 298L900 0L870 0C840 0 780 0 720 0C660 0 600 0 540 0C480 0 420 0 360 0C300 0 240 0 180 0C120 0 60 0 30 0L0 0Z" fill="#005291"></path><path d="M0 246L30 246.8C60 247.7 120 249.3 180 252.5C240 255.7 300 260.3 360 260.3C420 260.3 480 255.7 540 257.5C600 259.3 660 267.7 720 274C780 280.3 840 284.7 870 286.8L900 289L900 0L870 0C840 0 780 0 720 0C660 0 600 0 540 0C480 0 420 0 360 0C300 0 240 0 180 0C120 0 60 0 30 0L0 0Z" fill="#43679b"></path><path d="M0 213L30 216.7C60 220.3 120 227.7 180 231.3C240 235 300 235 360 233C420 231 480 227 540 220.7C600 214.3 660 205.7 720 201.7C780 197.7 840 198.3 870 198.7L900 199L900 0L870 0C840 0 780 0 720 0C660 0 600 0 540 0C480 0 420 0 360 0C300 0 240 0 180 0C120 0 60 0 30 0L0 0Z" fill="#677da6"></path><path d="M0 175L30 174.3C60 173.7 120 172.3 180 169.3C240 166.3 300 161.7 360 159.3C420 157 480 157 540 158C600 159 660 161 720 159.8C780 158.7 840 154.3 870 152.2L900 150L900 0L870 0C840 0 780 0 720 0C660 0 600 0 540 0C480 0 420 0 360 0C300 0 240 0 180 0C120 0 60 0 30 0L0 0Z" fill="#8794b0"></path><path d="M0 101L30 102C60 103 120 105 180 108.2C240 111.3 300 115.7 360 116.7C420 117.7 480 115.3 540 116.7C600 118 660 123 720 125.3C780 127.7 840 127.3 870 127.2L900 127L900 0L870 0C840 0 780 0 720 0C660 0 600 0 540 0C480 0 420 0 360 0C300 0 240 0 180 0C120 0 60 0 30 0L0 0Z" fill="#a6abba"></path><path d="M0 56L30 57.5C60 59 120 62 180 61.3C240 60.7 300 56.3 360 57C420 57.7 480 63.3 540 64.5C600 65.7 660 62.3 720 63.2C780 64 840 69 870 71.5L900 74L900 0L870 0C840 0 780 0 720 0C660 0 600 0 540 0C480 0 420 0 360 0C300 0 240 0 180 0C120 0 60 0 30 0L0 0Z" fill="#c4c4c4"></path></svg>