<svg id="visual" viewBox="0 0 960 540" width="960" height="540" xmlns="http://www.w3.org/2000/svg" xmlns:xlink="http://www.w3.org/1999/xlink" version="1.1"><rect x="0" y="0" width="960" height="540" fill="#c4c4c4"></rect><path d="M0 155L32 155.8C64 156.7 128 158.3 192 153.7C256 149 320 138 384 128.5C448 119 512 111 576 115.8C640 120.7 704 138.3 768 150.7C832 163 896 170 928 173.5L960 177L960 541L928 541C896 541 832 541 768 541C704 541 640 541 576 541C512 541 448 541 384 541C320 541 256 541 192 541C128 541 64 541 32 541L0 541Z" fill="#d91607"></path><path d="M0 161L32 168.2C64 175.3 128 189.7 192 192.8C256 196 320 188 384 188C448 188 512 196 576 193.2C640 190.3 704 176.7 768 171.8C832 167 896 171 928 173L960 175L960 541L928 541C896 541 832 541 768 541C704 541 640 541 576 541C512 541 448 541 384 541C320 541 256 541 192 541C128 541 64 541 32 541L0 541Z" fill="#cd0030"></path><path d="M0 206L32 203.7C64 201.3 128 196.7 192 201C256 205.3 320 218.7 384 222.3C448 226 512 220 576 217C640 214 704 214 768 211.5C832 209 896 204 928 201.5L960 199L960 541L928 541C896 541 832 541 768 541C704 541 640 541 576 541C512 541 448 541 384 541C320 541 256 541 192 541C128 541 64 541 32 541L0 541Z" fill="#b90047"></path><path d="M0 236L32 233.8C64 231.7 128 227.3 192 229.7C256 232 320 241 384 250.8C448 260.7 512 271.3 576 269.7C640 268 704 254 768 245.5C832 237 896 234 928 232.5L960 231L960 541L928 541C896 541 832 541 768 541C704 541 640 541 576 541C512 541 448 541 384 541C320 541 256 541 192 541C128 541 64 541 32 541L0 541Z" fill="#9c0058"></path><path d="M0 271L32 275.8C64 280.7 128 290.3 192 292.8C256 295.3 320 290.7 384 289.7C448 288.7 512 291.3 576 294.7C640 298 704 302 768 299.3C832 296.7 896 287.3 928 282.7L960 278L960 541L928 541C896 541 832 541 768 541C704 541 640 541 576 541C512 541 448 541 384 541C320 541 256 541 192 541C128 541 64 541 32 541L0 541Z" fill="#7b0c61"></path><path d="M0 351L32 345C64 339 128 327 192 325.5C256 324 320 333 384 337C448 341 512 340 576 339.7C640 339.3 704 339.7 768 335.7C832 331.7 896 323.3 928 319.2L960 315L960 541L928 541C896 541 832 541 768 541C704 541 640 541 576 541C512 541 448 541 384 541C320 541 256 541 192 541C128 541 64 541 32 541L0 541Z" fill="#591d61"></path><path d="M0 360L32 364.7C64 369.3 128 378.7 192 382C256 385.3 320 382.7 384 381.3C448 380 512 380 576 375C640 370 704 360 768 357.8C832 355.7 896 361.3 928 364.2L960 367L960 541L928 541C896 541 832 541 768 541C704 541 640 541 576 541C512 541 448 541 384 541C320 541 256 541 192 541C128 541 64 541 32 541L0 541Z" fill="#372258"></path><path d="M0 414L32 416.7C64 419.3 128 424.7 192 421C256 417.3 320 404.7 384 403.2C448 401.7 512 411.3 576 413.7C640 416 704 411 768 411.5C832 412 896 418 928 421L960 424L960 541L928 541C896 541 832 541 768 541C704 541 640 541 576 541C512 541 448 541 384 541C320 541 256 541 192 541C128 541 64 541 32 541L0 541Z" fill="#192049"></path><path d="M0 462L32 458.2C64 454.3 128 446.7 192 442.7C256 438.7 320 438.3 384 442.3C448 446.3 512 454.7 576 458.5C640 462.3 704 461.7 768 458.5C832 455.3 896 449.7 928 446.8L960 444L960 541L928 541C896 541 832 541 768 541C704 541 640 541 576 541C512 541 448 541 384 541C320 541 256 541 192 541C128 541 64 541 32 541L0 541Z" fill="#041b35"></path><path d="M0 490L32 490.7C64 491.3 128 492.7 192 493.7C256 494.7 320 495.3 384 493.2C448 491 512 486 576 485.7C640 485.3 704 489.7 768 490.2C832 490.7 896 487.3 928 485.7L960 484L960 541L928 541C896 541 832 541 768 541C704 541 640 541 576 541C512 541 448 541 384 541C320 541 256 541 192 541C128 541 64 541 32 541L0 541Z" fill="#001220"></path></svg>