<svg id="visual" viewBox="0 0 960 540" width="960" height="540" xmlns="http://www.w3.org/2000/svg" xmlns:xlink="http://www.w3.org/1999/xlink" version="1.1"><rect x="0" y="0" width="960" height="540" fill="#E5E5F7"></rect><path d="M0 162L22.8 171.7C45.7 181.3 91.3 200.7 137 207.7C182.7 214.7 228.3 209.3 274 221C319.7 232.7 365.3 261.3 411.2 253.2C457 245 503 200 548.8 198.7C594.7 197.3 640.3 239.7 686 257.7C731.7 275.7 777.3 269.3 823 255.2C868.7 241 914.3 219 937.2 208L960 197L960 541L937.2 541C914.3 541 868.7 541 823 541C777.3 541 731.7 541 686 541C640.3 541 594.7 541 548.8 541C503 541 457 541 411.2 541C365.3 541 319.7 541 274 541C228.3 541 182.7 541 137 541C91.3 541 45.7 541 22.8 541L0 541Z" fill="#fa7268"></path><path d="M0 337L22.8 318.5C45.7 300 91.3 263 137 247.3C182.7 231.7 228.3 237.3 274 254.8C319.7 272.3 365.3 301.7 411.2 303C457 304.3 503 277.7 548.8 275C594.7 272.3 640.3 293.7 686 289C731.7 284.3 777.3 253.7 823 244C868.7 234.3 914.3 245.7 937.2 251.3L960 257L960 541L937.2 541C914.3 541 868.7 541 823 541C777.3 541 731.7 541 686 541C640.3 541 594.7 541 548.8 541C503 541 457 541 411.2 541C365.3 541 319.7 541 274 541C228.3 541 182.7 541 137 541C91.3 541 45.7 541 22.8 541L0 541Z" fill="#ef5f67"></path><path d="M0 310L22.8 324.5C45.7 339 91.3 368 137 375C182.7 382 228.3 367 274 351C319.7 335 365.3 318 411.2 314.8C457 311.7 503 322.3 548.8 327.8C594.7 333.3 640.3 333.7 686 338.8C731.7 344 777.3 354 823 364.2C868.7 374.3 914.3 384.7 937.2 389.8L960 395L960 541L937.2 541C914.3 541 868.7 541 823 541C777.3 541 731.7 541 686 541C640.3 541 594.7 541 548.8 541C503 541 457 541 411.2 541C365.3 541 319.7 541 274 541C228.3 541 182.7 541 137 541C91.3 541 45.7 541 22.8 541L0 541Z" fill="#e34c67"></path><path d="M0 435L22.8 425.2C45.7 415.3 91.3 395.7 137 381.3C182.7 367 228.3 358 274 366.7C319.7 375.3 365.3 401.7 411.2 403.8C457 406 503 384 548.8 379.3C594.7 374.7 640.3 387.3 686 385.7C731.7 384 777.3 368 823 361.8C868.7 355.7 914.3 359.3 937.2 361.2L960 363L960 541L937.2 541C914.3 541 868.7 541 823 541C777.3 541 731.7 541 686 541C640.3 541 594.7 541 548.8 541C503 541 457 541 411.2 541C365.3 541 319.7 541 274 541C228.3 541 182.7 541 137 541C91.3 541 45.7 541 22.8 541L0 541Z" fill="#d53867"></path><path d="M0 464L22.8 467.8C45.7 471.7 91.3 479.3 137 483C182.7 486.7 228.3 486.3 274 483.7C319.7 481 365.3 476 411.2 466.8C457 457.7 503 444.3 548.8 443.5C594.7 442.7 640.3 454.3 686 460.8C731.7 467.3 777.3 468.7 823 465.2C868.7 461.7 914.3 453.3 937.2 449.2L960 445L960 541L937.2 541C914.3 541 868.7 541 823 541C777.3 541 731.7 541 686 541C640.3 541 594.7 541 548.8 541C503 541 457 541 411.2 541C365.3 541 319.7 541 274 541C228.3 541 182.7 541 137 541C91.3 541 45.7 541 22.8 541L0 541Z" fill="#c62368"></path></svg>