<svg id="visual" viewBox="0 0 960 540" width="960" height="540" xmlns="http://www.w3.org/2000/svg" xmlns:xlink="http://www.w3.org/1999/xlink" version="1.1"><rect x="0" y="0" width="960" height="540" fill="#001220"></rect><path d="M0 269L22.8 261.8C45.7 254.7 91.3 240.3 137 232C182.7 223.7 228.3 221.3 274 214.8C319.7 208.3 365.3 197.7 411.2 207.7C457 217.7 503 248.3 548.8 258.5C594.7 268.7 640.3 258.3 686 239.8C731.7 221.3 777.3 194.7 823 180.3C868.7 166 914.3 164 937.2 163L960 162L960 541L937.2 541C914.3 541 868.7 541 823 541C777.3 541 731.7 541 686 541C640.3 541 594.7 541 548.8 541C503 541 457 541 411.2 541C365.3 541 319.7 541 274 541C228.3 541 182.7 541 137 541C91.3 541 45.7 541 22.8 541L0 541Z" fill="#fa7268"></path><path d="M0 299L22.8 305.7C45.7 312.3 91.3 325.7 137 310.3C182.7 295 228.3 251 274 244.2C319.7 237.3 365.3 267.7 411.2 281.2C457 294.7 503 291.3 548.8 283.2C594.7 275 640.3 262 686 259.8C731.7 257.7 777.3 266.3 823 267C868.7 267.7 914.3 260.3 937.2 256.7L960 253L960 541L937.2 541C914.3 541 868.7 541 823 541C777.3 541 731.7 541 686 541C640.3 541 594.7 541 548.8 541C503 541 457 541 411.2 541C365.3 541 319.7 541 274 541C228.3 541 182.7 541 137 541C91.3 541 45.7 541 22.8 541L0 541Z" fill="#ef5f67"></path><path d="M0 349L22.8 344.8C45.7 340.7 91.3 332.3 137 329.5C182.7 326.7 228.3 329.3 274 336.3C319.7 343.3 365.3 354.7 411.2 360.3C457 366 503 366 548.8 365.3C594.7 364.7 640.3 363.3 686 351.3C731.7 339.3 777.3 316.7 823 304C868.7 291.3 914.3 288.7 937.2 287.3L960 286L960 541L937.2 541C914.3 541 868.7 541 823 541C777.3 541 731.7 541 686 541C640.3 541 594.7 541 548.8 541C503 541 457 541 411.2 541C365.3 541 319.7 541 274 541C228.3 541 182.7 541 137 541C91.3 541 45.7 541 22.8 541L0 541Z" fill="#e34c67"></path><path d="M0 381L22.8 382.2C45.7 383.3 91.3 385.7 137 386.7C182.7 387.7 228.3 387.3 274 383.7C319.7 380 365.3 373 411.2 373.8C457 374.7 503 383.3 548.8 388.7C594.7 394 640.3 396 686 388.8C731.7 381.7 777.3 365.3 823 366.3C868.7 367.3 914.3 385.7 937.2 394.8L960 404L960 541L937.2 541C914.3 541 868.7 541 823 541C777.3 541 731.7 541 686 541C640.3 541 594.7 541 548.8 541C503 541 457 541 411.2 541C365.3 541 319.7 541 274 541C228.3 541 182.7 541 137 541C91.3 541 45.7 541 22.8 541L0 541Z" fill="#d53867"></path><path d="M0 452L22.8 456.7C45.7 461.3 91.3 470.7 137 466.5C182.7 462.3 228.3 444.7 274 444.7C319.7 444.7 365.3 462.3 411.2 465C457 467.7 503 455.3 548.8 449.3C594.7 443.3 640.3 443.7 686 439.5C731.7 435.3 777.3 426.7 823 434.3C868.7 442 914.3 466 937.2 478L960 490L960 541L937.2 541C914.3 541 868.7 541 823 541C777.3 541 731.7 541 686 541C640.3 541 594.7 541 548.8 541C503 541 457 541 411.2 541C365.3 541 319.7 541 274 541C228.3 541 182.7 541 137 541C91.3 541 45.7 541 22.8 541L0 541Z" fill="#c62368"></path></svg>