<svg id="visual" viewBox="0 0 960 540" width="960" height="540" xmlns="http://www.w3.org/2000/svg" xmlns:xlink="http://www.w3.org/1999/xlink" version="1.1"><rect x="0" y="0" width="960" height="540" fill="#c4c4c4"></rect><path d="M0 383L32 382.2C64 381.3 128 379.7 192 384.3C256 389 320 400 384 409.5C448 419 512 427 576 422.2C640 417.3 704 399.7 768 387.3C832 375 896 368 928 364.5L960 361L960 0L928 0C896 0 832 0 768 0C704 0 640 0 576 0C512 0 448 0 384 0C320 0 256 0 192 0C128 0 64 0 32 0L0 0Z" fill="#fcaf3c"></path><path d="M0 377L32 369.8C64 362.7 128 348.3 192 345.2C256 342 320 350 384 350C448 350 512 342 576 344.8C640 347.7 704 361.3 768 366.2C832 371 896 367 928 365L960 363L960 0L928 0C896 0 832 0 768 0C704 0 640 0 576 0C512 0 448 0 384 0C320 0 256 0 192 0C128 0 64 0 32 0L0 0Z" fill="#f88d4b"></path><path d="M0 332L32 334.3C64 336.7 128 341.3 192 337C256 332.7 320 319.3 384 315.7C448 312 512 318 576 321C640 324 704 324 768 326.5C832 329 896 334 928 336.5L960 339L960 0L928 0C896 0 832 0 768 0C704 0 640 0 576 0C512 0 448 0 384 0C320 0 256 0 192 0C128 0 64 0 32 0L0 0Z" fill="#e86f5b"></path><path d="M0 302L32 304.2C64 306.3 128 310.7 192 308.3C256 306 320 297 384 287.2C448 277.3 512 266.7 576 268.3C640 270 704 284 768 292.5C832 301 896 304 928 305.5L960 307L960 0L928 0C896 0 832 0 768 0C704 0 640 0 576 0C512 0 448 0 384 0C320 0 256 0 192 0C128 0 64 0 32 0L0 0Z" fill="#cd5867"></path><path d="M0 267L32 262.2C64 257.3 128 247.7 192 245.2C256 242.7 320 247.3 384 248.3C448 249.3 512 246.7 576 243.3C640 240 704 236 768 238.7C832 241.3 896 250.7 928 255.3L960 260L960 0L928 0C896 0 832 0 768 0C704 0 640 0 576 0C512 0 448 0 384 0C320 0 256 0 192 0C128 0 64 0 32 0L0 0Z" fill="#aa496e"></path><path d="M0 187L32 193C64 199 128 211 192 212.5C256 214 320 205 384 201C448 197 512 198 576 198.3C640 198.7 704 198.3 768 202.3C832 206.3 896 214.7 928 218.8L960 223L960 0L928 0C896 0 832 0 768 0C704 0 640 0 576 0C512 0 448 0 384 0C320 0 256 0 192 0C128 0 64 0 32 0L0 0Z" fill="#83406c"></path><path d="M0 178L32 173.3C64 168.7 128 159.3 192 156C256 152.7 320 155.3 384 156.7C448 158 512 158 576 163C640 168 704 178 768 180.2C832 182.3 896 176.7 928 173.8L960 171L960 0L928 0C896 0 832 0 768 0C704 0 640 0 576 0C512 0 448 0 384 0C320 0 256 0 192 0C128 0 64 0 32 0L0 0Z" fill="#5a3763"></path><path d="M0 124L32 121.3C64 118.7 128 113.3 192 117C256 120.7 320 133.3 384 134.8C448 136.3 512 126.7 576 124.3C640 122 704 127 768 126.5C832 126 896 120 928 117L960 114L960 0L928 0C896 0 832 0 768 0C704 0 640 0 576 0C512 0 448 0 384 0C320 0 256 0 192 0C128 0 64 0 32 0L0 0Z" fill="#342d51"></path><path d="M0 76L32 79.8C64 83.7 128 91.3 192 95.3C256 99.3 320 99.7 384 95.7C448 91.7 512 83.3 576 79.5C640 75.7 704 76.3 768 79.5C832 82.7 896 88.3 928 91.2L960 94L960 0L928 0C896 0 832 0 768 0C704 0 640 0 576 0C512 0 448 0 384 0C320 0 256 0 192 0C128 0 64 0 32 0L0 0Z" fill="#152139"></path><path d="M0 48L32 47.3C64 46.7 128 45.3 192 44.3C256 43.3 320 42.7 384 44.8C448 47 512 52 576 52.3C640 52.7 704 48.3 768 47.8C832 47.3 896 50.7 928 52.3L960 54L960 0L928 0C896 0 832 0 768 0C704 0 640 0 576 0C512 0 448 0 384 0C320 0 256 0 192 0C128 0 64 0 32 0L0 0Z" fill="#001220"></path></svg>