<svg id="visual" viewBox="0 0 1920 900" width="1920" height="900" xmlns="http://www.w3.org/2000/svg" xmlns:xlink="http://www.w3.org/1999/xlink" version="1.1"><rect x="0" y="0" width="1920" height="900" fill="#001220"></rect><path d="M0 717L45.7 700.7C91.3 684.3 182.7 651.7 274.2 637.2C365.7 622.7 457.3 626.3 548.8 641.8C640.3 657.3 731.7 684.7 823 681.2C914.3 677.7 1005.7 643.3 1097 634.3C1188.3 625.3 1279.7 641.7 1371.2 649.7C1462.7 657.7 1554.3 657.3 1645.8 656.2C1737.3 655 1828.7 653 1874.3 652L1920 651L1920 901L1874.3 901C1828.7 901 1737.3 901 1645.8 901C1554.3 901 1462.7 901 1371.2 901C1279.7 901 1188.3 901 1097 901C1005.7 901 914.3 901 823 901C731.7 901 640.3 901 548.8 901C457.3 901 365.7 901 274.2 901C182.7 901 91.3 901 45.7 901L0 901Z" fill="#14213d"></path><path d="M0 731L45.7 728.3C91.3 725.7 182.7 720.3 274.2 721.5C365.7 722.7 457.3 730.3 548.8 735.5C640.3 740.7 731.7 743.3 823 730.7C914.3 718 1005.7 690 1097 674.5C1188.3 659 1279.7 656 1371.2 664.7C1462.7 673.3 1554.3 693.7 1645.8 697.5C1737.3 701.3 1828.7 688.7 1874.3 682.3L1920 676L1920 901L1874.3 901C1828.7 901 1737.3 901 1645.8 901C1554.3 901 1462.7 901 1371.2 901C1279.7 901 1188.3 901 1097 901C1005.7 901 914.3 901 823 901C731.7 901 640.3 901 548.8 901C457.3 901 365.7 901 274.2 901C182.7 901 91.3 901 45.7 901L0 901Z" fill="#0c3551"></path><path d="M0 766L45.7 767.7C91.3 769.3 182.7 772.7 274.2 775.7C365.7 778.7 457.3 781.3 548.8 771C640.3 760.7 731.7 737.3 823 729.2C914.3 721 1005.7 728 1097 738.5C1188.3 749 1279.7 763 1371.2 767.8C1462.7 772.7 1554.3 768.3 1645.8 758C1737.3 747.7 1828.7 731.3 1874.3 723.2L1920 715L1920 901L1874.3 901C1828.7 901 1737.3 901 1645.8 901C1554.3 901 1462.7 901 1371.2 901C1279.7 901 1188.3 901 1097 901C1005.7 901 914.3 901 823 901C731.7 901 640.3 901 548.8 901C457.3 901 365.7 901 274.2 901C182.7 901 91.3 901 45.7 901L0 901Z" fill="#004a62"></path><path d="M0 790L45.7 795.2C91.3 800.3 182.7 810.7 274.2 810.5C365.7 810.3 457.3 799.7 548.8 791C640.3 782.3 731.7 775.7 823 779.7C914.3 783.7 1005.7 798.3 1097 799C1188.3 799.7 1279.7 786.3 1371.2 786.7C1462.7 787 1554.3 801 1645.8 799C1737.3 797 1828.7 779 1874.3 770L1920 761L1920 901L1874.3 901C1828.7 901 1737.3 901 1645.8 901C1554.3 901 1462.7 901 1371.2 901C1279.7 901 1188.3 901 1097 901C1005.7 901 914.3 901 823 901C731.7 901 640.3 901 548.8 901C457.3 901 365.7 901 274.2 901C182.7 901 91.3 901 45.7 901L0 901Z" fill="#005f6c"></path><path d="M0 860L45.7 853.5C91.3 847 182.7 834 274.2 826.8C365.7 819.7 457.3 818.3 548.8 817.2C640.3 816 731.7 815 823 815.8C914.3 816.7 1005.7 819.3 1097 827.5C1188.3 835.7 1279.7 849.3 1371.2 853.8C1462.7 858.3 1554.3 853.7 1645.8 849.5C1737.3 845.3 1828.7 841.7 1874.3 839.8L1920 838L1920 901L1874.3 901C1828.7 901 1737.3 901 1645.8 901C1554.3 901 1462.7 901 1371.2 901C1279.7 901 1188.3 901 1097 901C1005.7 901 914.3 901 823 901C731.7 901 640.3 901 548.8 901C457.3 901 365.7 901 274.2 901C182.7 901 91.3 901 45.7 901L0 901Z" fill="#14746f"></path></svg>