<svg id="visual" viewBox="0 0 1920 900" width="1920" height="900" xmlns="http://www.w3.org/2000/svg" xmlns:xlink="http://www.w3.org/1999/xlink" version="1.1"><rect x="0" y="0" width="1920" height="900" fill="#001220"></rect><path d="M0 181L45.7 197.3C91.3 213.7 182.7 246.3 274.2 260.8C365.7 275.3 457.3 271.7 548.8 256.2C640.3 240.7 731.7 213.3 823 216.8C914.3 220.3 1005.7 254.7 1097 263.7C1188.3 272.7 1279.7 256.3 1371.2 248.3C1462.7 240.3 1554.3 240.7 1645.8 241.8C1737.3 243 1828.7 245 1874.3 246L1920 247L1920 0L1874.3 0C1828.7 0 1737.3 0 1645.8 0C1554.3 0 1462.7 0 1371.2 0C1279.7 0 1188.3 0 1097 0C1005.7 0 914.3 0 823 0C731.7 0 640.3 0 548.8 0C457.3 0 365.7 0 274.2 0C182.7 0 91.3 0 45.7 0L0 0Z" fill="#14213d"></path><path d="M0 167L45.7 169.7C91.3 172.3 182.7 177.7 274.2 176.5C365.7 175.3 457.3 167.7 548.8 162.5C640.3 157.3 731.7 154.7 823 167.3C914.3 180 1005.7 208 1097 223.5C1188.3 239 1279.7 242 1371.2 233.3C1462.7 224.7 1554.3 204.3 1645.8 200.5C1737.3 196.7 1828.7 209.3 1874.3 215.7L1920 222L1920 0L1874.3 0C1828.7 0 1737.3 0 1645.8 0C1554.3 0 1462.7 0 1371.2 0C1279.7 0 1188.3 0 1097 0C1005.7 0 914.3 0 823 0C731.7 0 640.3 0 548.8 0C457.3 0 365.7 0 274.2 0C182.7 0 91.3 0 45.7 0L0 0Z" fill="#0c3551"></path><path d="M0 132L45.7 130.3C91.3 128.7 182.7 125.3 274.2 122.3C365.7 119.3 457.3 116.7 548.8 127C640.3 137.3 731.7 160.7 823 168.8C914.3 177 1005.7 170 1097 159.5C1188.3 149 1279.7 135 1371.2 130.2C1462.7 125.3 1554.3 129.7 1645.8 140C1737.3 150.3 1828.7 166.7 1874.3 174.8L1920 183L1920 0L1874.3 0C1828.7 0 1737.3 0 1645.8 0C1554.3 0 1462.7 0 1371.2 0C1279.7 0 1188.3 0 1097 0C1005.7 0 914.3 0 823 0C731.7 0 640.3 0 548.8 0C457.3 0 365.7 0 274.2 0C182.7 0 91.3 0 45.7 0L0 0Z" fill="#004a62"></path><path d="M0 108L45.7 102.8C91.3 97.7 182.7 87.3 274.2 87.5C365.7 87.7 457.3 98.3 548.8 107C640.3 115.7 731.7 122.3 823 118.3C914.3 114.3 1005.7 99.7 1097 99C1188.3 98.3 1279.7 111.7 1371.2 111.3C1462.7 111 1554.3 97 1645.8 99C1737.3 101 1828.7 119 1874.3 128L1920 137L1920 0L1874.3 0C1828.7 0 1737.3 0 1645.8 0C1554.3 0 1462.7 0 1371.2 0C1279.7 0 1188.3 0 1097 0C1005.7 0 914.3 0 823 0C731.7 0 640.3 0 548.8 0C457.3 0 365.7 0 274.2 0C182.7 0 91.3 0 45.7 0L0 0Z" fill="#005f6c"></path><path d="M0 38L45.7 44.5C91.3 51 182.7 64 274.2 71.2C365.7 78.3 457.3 79.7 548.8 80.8C640.3 82 731.7 83 823 82.2C914.3 81.3 1005.7 78.7 1097 70.5C1188.3 62.3 1279.7 48.7 1371.2 44.2C1462.7 39.7 1554.3 44.3 1645.8 48.5C1737.3 52.7 1828.7 56.3 1874.3 58.2L1920 60L1920 0L1874.3 0C1828.7 0 1737.3 0 1645.8 0C1554.3 0 1462.7 0 1371.2 0C1279.7 0 1188.3 0 1097 0C1005.7 0 914.3 0 823 0C731.7 0 640.3 0 548.8 0C457.3 0 365.7 0 274.2 0C182.7 0 91.3 0 45.7 0L0 0Z" fill="#14746f"></path></svg>