<svg id="visual" viewBox="0 0 960 540" width="960" height="540" xmlns="http://www.w3.org/2000/svg" xmlns:xlink="http://www.w3.org/1999/xlink" version="1.1"><rect x="0" y="0" width="960" height="540" fill="#14213D"></rect><path d="M0 370L32 384.3C64 398.7 128 427.3 192 426C256 424.7 320 393.3 384 379C448 364.7 512 367.3 576 381.5C640 395.7 704 421.3 768 424C832 426.7 896 406.3 928 396.2L960 386L960 541L928 541C896 541 832 541 768 541C704 541 640 541 576 541C512 541 448 541 384 541C320 541 256 541 192 541C128 541 64 541 32 541L0 541Z" fill="#FAC311" stroke-linecap="round" stroke-linejoin="miter"></path></svg>