<svg id="visual" viewBox="0 0 900 600" width="900" height="600" xmlns="http://www.w3.org/2000/svg" xmlns:xlink="http://www.w3.org/1999/xlink" version="1.1"><rect x="0" y="0" width="900" height="600" fill="#14213D"></rect><path d="M0 240L15 243.2C30 246.3 60 252.7 90 257C120 261.3 150 263.7 180 254.8C210 246 240 226 270 220.8C300 215.7 330 225.3 360 232.2C390 239 420 243 450 237.7C480 232.3 510 217.7 540 213.2C570 208.7 600 214.3 630 215.8C660 217.3 690 214.7 720 222.3C750 230 780 248 810 249.7C840 251.3 870 236.7 885 229.3L900 222L900 0L885 0C870 0 840 0 810 0C780 0 750 0 720 0C690 0 660 0 630 0C600 0 570 0 540 0C510 0 480 0 450 0C420 0 390 0 360 0C330 0 300 0 270 0C240 0 210 0 180 0C150 0 120 0 90 0C60 0 30 0 15 0L0 0Z" fill="#14213d"></path><path d="M0 232L15 232.2C30 232.3 60 232.7 90 225.8C120 219 150 205 180 196.7C210 188.3 240 185.7 270 192.5C300 199.3 330 215.7 360 219.5C390 223.3 420 214.7 450 206.5C480 198.3 510 190.7 540 186.2C570 181.7 600 180.3 630 187.5C660 194.7 690 210.3 720 214C750 217.7 780 209.3 810 209.7C840 210 870 219 885 223.5L900 228L900 0L885 0C870 0 840 0 810 0C780 0 750 0 720 0C690 0 660 0 630 0C600 0 570 0 540 0C510 0 480 0 450 0C420 0 390 0 360 0C330 0 300 0 270 0C240 0 210 0 180 0C150 0 120 0 90 0C60 0 30 0 15 0L0 0Z" fill="#2d3650"></path><path d="M0 171L15 174.8C30 178.7 60 186.3 90 191.5C120 196.7 150 199.3 180 197.7C210 196 240 190 270 185.7C300 181.3 330 178.7 360 177C390 175.3 420 174.7 450 178.5C480 182.3 510 190.7 540 192.3C570 194 600 189 630 182C660 175 690 166 720 169C750 172 780 187 810 190.5C840 194 870 186 885 182L900 178L900 0L885 0C870 0 840 0 810 0C780 0 750 0 720 0C690 0 660 0 630 0C600 0 570 0 540 0C510 0 480 0 450 0C420 0 390 0 360 0C330 0 300 0 270 0C240 0 210 0 180 0C150 0 120 0 90 0C60 0 30 0 15 0L0 0Z" fill="#464c64"></path><path d="M0 152L15 151.7C30 151.3 60 150.7 90 153.7C120 156.7 150 163.3 180 166.3C210 169.3 240 168.7 270 163C300 157.3 330 146.7 360 144.2C390 141.7 420 147.3 450 154.3C480 161.3 510 169.7 540 168.5C570 167.3 600 156.7 630 151.2C660 145.7 690 145.3 720 144.2C750 143 780 141 810 139.7C840 138.3 870 137.7 885 137.3L900 137L900 0L885 0C870 0 840 0 810 0C780 0 750 0 720 0C690 0 660 0 630 0C600 0 570 0 540 0C510 0 480 0 450 0C420 0 390 0 360 0C330 0 300 0 270 0C240 0 210 0 180 0C150 0 120 0 90 0C60 0 30 0 15 0L0 0Z" fill="#5e6378"></path><path d="M0 107L15 112C30 117 60 127 90 128.7C120 130.3 150 123.7 180 119.7C210 115.7 240 114.3 270 117.8C300 121.3 330 129.7 360 131.7C390 133.7 420 129.3 450 126.7C480 124 510 123 540 120.3C570 117.7 600 113.3 630 116.8C660 120.3 690 131.7 720 139.3C750 147 780 151 810 151.7C840 152.3 870 149.7 885 148.3L900 147L900 0L885 0C870 0 840 0 810 0C780 0 750 0 720 0C690 0 660 0 630 0C600 0 570 0 540 0C510 0 480 0 450 0C420 0 390 0 360 0C330 0 300 0 270 0C240 0 210 0 180 0C150 0 120 0 90 0C60 0 30 0 15 0L0 0Z" fill="#787b8d"></path><path d="M0 97L15 101.5C30 106 60 115 90 114.5C120 114 150 104 180 101.2C210 98.3 240 102.7 270 104.5C300 106.3 330 105.7 360 104.5C390 103.3 420 101.7 450 103.5C480 105.3 510 110.7 540 111C570 111.3 600 106.7 630 104.7C660 102.7 690 103.3 720 102.3C750 101.3 780 98.7 810 97C840 95.3 870 94.7 885 94.3L900 94L900 0L885 0C870 0 840 0 810 0C780 0 750 0 720 0C690 0 660 0 630 0C600 0 570 0 540 0C510 0 480 0 450 0C420 0 390 0 360 0C330 0 300 0 270 0C240 0 210 0 180 0C150 0 120 0 90 0C60 0 30 0 15 0L0 0Z" fill="#9294a2"></path><path d="M0 92L15 90.2C30 88.3 60 84.7 90 82.2C120 79.7 150 78.3 180 80C210 81.7 240 86.3 270 88.2C300 90 330 89 360 88.7C390 88.3 420 88.7 450 87.8C480 87 510 85 540 84.5C570 84 600 85 630 85.3C660 85.7 690 85.3 720 85C750 84.7 780 84.3 810 83.5C840 82.7 870 81.3 885 80.7L900 80L900 0L885 0C870 0 840 0 810 0C780 0 750 0 720 0C690 0 660 0 630 0C600 0 570 0 540 0C510 0 480 0 450 0C420 0 390 0 360 0C330 0 300 0 270 0C240 0 210 0 180 0C150 0 120 0 90 0C60 0 30 0 15 0L0 0Z" fill="#adaeb8"></path><path d="M0 71L15 68.5C30 66 60 61 90 59.5C120 58 150 60 180 62.2C210 64.3 240 66.7 270 66.2C300 65.7 330 62.3 360 62.7C390 63 420 67 450 65.2C480 63.3 510 55.7 540 54.5C570 53.3 600 58.7 630 57.5C660 56.3 690 48.7 720 49C750 49.3 780 57.7 810 59C840 60.3 870 54.7 885 51.8L900 49L900 0L885 0C870 0 840 0 810 0C780 0 750 0 720 0C690 0 660 0 630 0C600 0 570 0 540 0C510 0 480 0 450 0C420 0 390 0 360 0C330 0 300 0 270 0C240 0 210 0 180 0C150 0 120 0 90 0C60 0 30 0 15 0L0 0Z" fill="#c9c9ce"></path><path d="M0 44L15 42.8C30 41.7 60 39.3 90 38C120 36.7 150 36.3 180 32.7C210 29 240 22 270 18.8C300 15.7 330 16.3 360 16.3C390 16.3 420 15.7 450 17.7C480 19.7 510 24.3 540 24.3C570 24.3 600 19.7 630 21.8C660 24 690 33 720 37.7C750 42.3 780 42.7 810 38.7C840 34.7 870 26.3 885 22.2L900 18L900 0L885 0C870 0 840 0 810 0C780 0 750 0 720 0C690 0 660 0 630 0C600 0 570 0 540 0C510 0 480 0 450 0C420 0 390 0 360 0C330 0 300 0 270 0C240 0 210 0 180 0C150 0 120 0 90 0C60 0 30 0 15 0L0 0Z" fill="#e5e5e5"></path></svg>