<svg id="visual" viewBox="0 0 960 540" width="960" height="540" xmlns="http://www.w3.org/2000/svg" xmlns:xlink="http://www.w3.org/1999/xlink" version="1.1"><rect x="0" y="0" width="960" height="540" fill="#14213D"></rect><path d="M0 374L13.3 364.8C26.7 355.7 53.3 337.3 80 338.3C106.7 339.3 133.3 359.7 160 365C186.7 370.3 213.3 360.7 240 353.2C266.7 345.7 293.3 340.3 320 340.7C346.7 341 373.3 347 400 345C426.7 343 453.3 333 480 332C506.7 331 533.3 339 560 348.7C586.7 358.3 613.3 369.7 640 376.8C666.7 384 693.3 387 720 386.2C746.7 385.3 773.3 380.7 800 367.3C826.7 354 853.3 332 880 326.3C906.7 320.7 933.3 331.3 946.7 336.7L960 342L960 541L946.7 541C933.3 541 906.7 541 880 541C853.3 541 826.7 541 800 541C773.3 541 746.7 541 720 541C693.3 541 666.7 541 640 541C613.3 541 586.7 541 560 541C533.3 541 506.7 541 480 541C453.3 541 426.7 541 400 541C373.3 541 346.7 541 320 541C293.3 541 266.7 541 240 541C213.3 541 186.7 541 160 541C133.3 541 106.7 541 80 541C53.3 541 26.7 541 13.3 541L0 541Z" fill="#14213d"></path><path d="M0 360L13.3 359.8C26.7 359.7 53.3 359.3 80 364C106.7 368.7 133.3 378.3 160 376.7C186.7 375 213.3 362 240 364C266.7 366 293.3 383 320 386.5C346.7 390 373.3 380 400 375C426.7 370 453.3 370 480 372.2C506.7 374.3 533.3 378.7 560 384C586.7 389.3 613.3 395.7 640 388.2C666.7 380.7 693.3 359.3 720 349.8C746.7 340.3 773.3 342.7 800 349.5C826.7 356.3 853.3 367.7 880 367.2C906.7 366.7 933.3 354.3 946.7 348.2L960 342L960 541L946.7 541C933.3 541 906.7 541 880 541C853.3 541 826.7 541 800 541C773.3 541 746.7 541 720 541C693.3 541 666.7 541 640 541C613.3 541 586.7 541 560 541C533.3 541 506.7 541 480 541C453.3 541 426.7 541 400 541C373.3 541 346.7 541 320 541C293.3 541 266.7 541 240 541C213.3 541 186.7 541 160 541C133.3 541 106.7 541 80 541C53.3 541 26.7 541 13.3 541L0 541Z" fill="#2d3650"></path><path d="M0 362L13.3 369.7C26.7 377.3 53.3 392.7 80 402.7C106.7 412.7 133.3 417.3 160 411.2C186.7 405 213.3 388 240 377.3C266.7 366.7 293.3 362.3 320 369.5C346.7 376.7 373.3 395.3 400 396.7C426.7 398 453.3 382 480 375.8C506.7 369.7 533.3 373.3 560 379.2C586.7 385 613.3 393 640 398.3C666.7 403.7 693.3 406.3 720 399.5C746.7 392.7 773.3 376.3 800 374.5C826.7 372.7 853.3 385.3 880 394.8C906.7 404.3 933.3 410.7 946.7 413.8L960 417L960 541L946.7 541C933.3 541 906.7 541 880 541C853.3 541 826.7 541 800 541C773.3 541 746.7 541 720 541C693.3 541 666.7 541 640 541C613.3 541 586.7 541 560 541C533.3 541 506.7 541 480 541C453.3 541 426.7 541 400 541C373.3 541 346.7 541 320 541C293.3 541 266.7 541 240 541C213.3 541 186.7 541 160 541C133.3 541 106.7 541 80 541C53.3 541 26.7 541 13.3 541L0 541Z" fill="#464c64"></path><path d="M0 408L13.3 408.5C26.7 409 53.3 410 80 407.7C106.7 405.3 133.3 399.7 160 398.7C186.7 397.7 213.3 401.3 240 404.5C266.7 407.7 293.3 410.3 320 414.8C346.7 419.3 373.3 425.7 400 425.8C426.7 426 453.3 420 480 418.2C506.7 416.3 533.3 418.7 560 415.7C586.7 412.7 613.3 404.3 640 399.5C666.7 394.7 693.3 393.3 720 397.8C746.7 402.3 773.3 412.7 800 412.8C826.7 413 853.3 403 880 400.3C906.7 397.7 933.3 402.3 946.7 404.7L960 407L960 541L946.7 541C933.3 541 906.7 541 880 541C853.3 541 826.7 541 800 541C773.3 541 746.7 541 720 541C693.3 541 666.7 541 640 541C613.3 541 586.7 541 560 541C533.3 541 506.7 541 480 541C453.3 541 426.7 541 400 541C373.3 541 346.7 541 320 541C293.3 541 266.7 541 240 541C213.3 541 186.7 541 160 541C133.3 541 106.7 541 80 541C53.3 541 26.7 541 13.3 541L0 541Z" fill="#5e6378"></path><path d="M0 415L13.3 418.7C26.7 422.3 53.3 429.7 80 434.7C106.7 439.7 133.3 442.3 160 441.5C186.7 440.7 213.3 436.3 240 433.7C266.7 431 293.3 430 320 429.7C346.7 429.3 373.3 429.7 400 431.7C426.7 433.7 453.3 437.3 480 439.3C506.7 441.3 533.3 441.7 560 439.5C586.7 437.3 613.3 432.7 640 429.3C666.7 426 693.3 424 720 423.3C746.7 422.7 773.3 423.3 800 421.2C826.7 419 853.3 414 880 415C906.7 416 933.3 423 946.7 426.5L960 430L960 541L946.7 541C933.3 541 906.7 541 880 541C853.3 541 826.7 541 800 541C773.3 541 746.7 541 720 541C693.3 541 666.7 541 640 541C613.3 541 586.7 541 560 541C533.3 541 506.7 541 480 541C453.3 541 426.7 541 400 541C373.3 541 346.7 541 320 541C293.3 541 266.7 541 240 541C213.3 541 186.7 541 160 541C133.3 541 106.7 541 80 541C53.3 541 26.7 541 13.3 541L0 541Z" fill="#787b8d"></path><path d="M0 450L13.3 452.3C26.7 454.7 53.3 459.3 80 458.5C106.7 457.7 133.3 451.3 160 446.2C186.7 441 213.3 437 240 435.5C266.7 434 293.3 435 320 435.3C346.7 435.7 373.3 435.3 400 436.3C426.7 437.3 453.3 439.7 480 442.5C506.7 445.3 533.3 448.7 560 452.2C586.7 455.7 613.3 459.3 640 462.5C666.7 465.7 693.3 468.3 720 469.8C746.7 471.3 773.3 471.7 800 467.5C826.7 463.3 853.3 454.7 880 452.7C906.7 450.7 933.3 455.3 946.7 457.7L960 460L960 541L946.7 541C933.3 541 906.7 541 880 541C853.3 541 826.7 541 800 541C773.3 541 746.7 541 720 541C693.3 541 666.7 541 640 541C613.3 541 586.7 541 560 541C533.3 541 506.7 541 480 541C453.3 541 426.7 541 400 541C373.3 541 346.7 541 320 541C293.3 541 266.7 541 240 541C213.3 541 186.7 541 160 541C133.3 541 106.7 541 80 541C53.3 541 26.7 541 13.3 541L0 541Z" fill="#9294a2"></path><path d="M0 472L13.3 469.7C26.7 467.3 53.3 462.7 80 463.8C106.7 465 133.3 472 160 471.2C186.7 470.3 213.3 461.7 240 462.3C266.7 463 293.3 473 320 478.2C346.7 483.3 373.3 483.7 400 482.2C426.7 480.7 453.3 477.3 480 474.8C506.7 472.3 533.3 470.7 560 472.3C586.7 474 613.3 479 640 482.8C666.7 486.7 693.3 489.3 720 484.7C746.7 480 773.3 468 800 464.2C826.7 460.3 853.3 464.7 880 466.3C906.7 468 933.3 467 946.7 466.5L960 466L960 541L946.7 541C933.3 541 906.7 541 880 541C853.3 541 826.7 541 800 541C773.3 541 746.7 541 720 541C693.3 541 666.7 541 640 541C613.3 541 586.7 541 560 541C533.3 541 506.7 541 480 541C453.3 541 426.7 541 400 541C373.3 541 346.7 541 320 541C293.3 541 266.7 541 240 541C213.3 541 186.7 541 160 541C133.3 541 106.7 541 80 541C53.3 541 26.7 541 13.3 541L0 541Z" fill="#adaeb8"></path><path d="M0 500L13.3 501.3C26.7 502.7 53.3 505.3 80 504.7C106.7 504 133.3 500 160 496.8C186.7 493.7 213.3 491.3 240 489.5C266.7 487.7 293.3 486.3 320 486.3C346.7 486.3 373.3 487.7 400 488.8C426.7 490 453.3 491 480 492.7C506.7 494.3 533.3 496.7 560 496.5C586.7 496.3 613.3 493.7 640 492.8C666.7 492 693.3 493 720 494C746.7 495 773.3 496 800 498.3C826.7 500.7 853.3 504.3 880 504C906.7 503.7 933.3 499.3 946.7 497.2L960 495L960 541L946.7 541C933.3 541 906.7 541 880 541C853.3 541 826.7 541 800 541C773.3 541 746.7 541 720 541C693.3 541 666.7 541 640 541C613.3 541 586.7 541 560 541C533.3 541 506.7 541 480 541C453.3 541 426.7 541 400 541C373.3 541 346.7 541 320 541C293.3 541 266.7 541 240 541C213.3 541 186.7 541 160 541C133.3 541 106.7 541 80 541C53.3 541 26.7 541 13.3 541L0 541Z" fill="#c9c9ce"></path><path d="M0 509L13.3 509.5C26.7 510 53.3 511 80 512.2C106.7 513.3 133.3 514.7 160 512.7C186.7 510.7 213.3 505.3 240 502.5C266.7 499.7 293.3 499.3 320 502.3C346.7 505.3 373.3 511.7 400 512.3C426.7 513 453.3 508 480 505C506.7 502 533.3 501 560 503.2C586.7 505.3 613.3 510.7 640 514.8C666.7 519 693.3 522 720 521.8C746.7 521.7 773.3 518.3 800 517.3C826.7 516.3 853.3 517.7 880 515.7C906.7 513.7 933.3 508.3 946.7 505.7L960 503L960 541L946.7 541C933.3 541 906.7 541 880 541C853.3 541 826.7 541 800 541C773.3 541 746.7 541 720 541C693.3 541 666.7 541 640 541C613.3 541 586.7 541 560 541C533.3 541 506.7 541 480 541C453.3 541 426.7 541 400 541C373.3 541 346.7 541 320 541C293.3 541 266.7 541 240 541C213.3 541 186.7 541 160 541C133.3 541 106.7 541 80 541C53.3 541 26.7 541 13.3 541L0 541Z" fill="#e5e5e5"></path></svg>