<svg id="visual" viewBox="0 0 960 540" width="960" height="540" xmlns="http://www.w3.org/2000/svg" xmlns:xlink="http://www.w3.org/1999/xlink" version="1.1"><path d="M930 540L940 540L940 517L921 517L921 493L930 493L930 470L911 470L911 446L921 446L921 423L911 423L911 399L930 399L930 376L911 376L911 352L921 352L921 329L940 329L940 305L911 305L911 282L930 282L930 258L911 258L911 235L921 235L921 211L940 211L940 188L930 188L930 164L930 164L930 141L930 141L930 117L940 117L940 94L940 94L940 70L930 70L930 47L921 47L921 23L921 23L921 0L960 0L960 23L960 23L960 47L960 47L960 70L960 70L960 94L960 94L960 117L960 117L960 141L960 141L960 164L960 164L960 188L960 188L960 211L960 211L960 235L960 235L960 258L960 258L960 282L960 282L960 305L960 305L960 329L960 329L960 352L960 352L960 376L960 376L960 399L960 399L960 423L960 423L960 446L960 446L960 470L960 470L960 493L960 493L960 517L960 517L960 540L960 540Z" fill="#fa7268"></path><path d="M853 540L882 540L882 517L844 517L844 493L863 493L863 470L863 470L863 446L882 446L882 423L825 423L825 399L863 399L863 376L844 376L844 352L873 352L873 329L844 329L844 305L834 305L834 282L863 282L863 258L873 258L873 235L834 235L834 211L882 211L882 188L844 188L844 164L853 164L853 141L882 141L882 117L901 117L901 94L892 94L892 70L901 70L901 47L863 47L863 23L863 23L863 0L922 0L922 23L922 23L922 47L931 47L931 70L941 70L941 94L941 94L941 117L931 117L931 141L931 141L931 164L931 164L931 188L941 188L941 211L922 211L922 235L912 235L912 258L931 258L931 282L912 282L912 305L941 305L941 329L922 329L922 352L912 352L912 376L931 376L931 399L912 399L912 423L922 423L922 446L912 446L912 470L931 470L931 493L922 493L922 517L941 517L941 540L931 540Z" fill="#e74a6d"></path><path d="M796 540L844 540L844 517L786 517L786 493L805 493L805 470L815 470L815 446L863 446L863 423L786 423L786 399L825 399L825 376L825 376L825 352L815 352L815 329L777 329L777 305L805 305L805 282L844 282L844 258L815 258L815 235L786 235L786 211L825 211L825 188L805 188L805 164L786 164L786 141L844 141L844 117L882 117L882 94L834 94L834 70L873 70L873 47L834 47L834 23L805 23L805 0L864 0L864 23L864 23L864 47L902 47L902 70L893 70L893 94L902 94L902 117L883 117L883 141L854 141L854 164L845 164L845 188L883 188L883 211L835 211L835 235L874 235L874 258L864 258L864 282L835 282L835 305L845 305L845 329L874 329L874 352L845 352L845 376L864 376L864 399L826 399L826 423L883 423L883 446L864 446L864 470L864 470L864 493L845 493L845 517L883 517L883 540L854 540Z" fill="#cc2077"></path><path d="M652 540L719 540L719 517L719 517L719 493L690 493L690 470L748 470L748 446L796 446L796 423L671 423L671 399L661 399L661 376L681 376L681 352L690 352L690 329L661 329L661 305L748 305L748 282L709 282L709 258L671 258L671 235L623 235L623 211L729 211L729 188L709 188L709 164L681 164L681 141L757 141L757 117L748 117L748 94L700 94L700 70L738 70L738 47L767 47L767 23L652 23L652 0L806 0L806 23L835 23L835 47L874 47L874 70L835 70L835 94L883 94L883 117L845 117L845 141L787 141L787 164L806 164L806 188L826 188L826 211L787 211L787 235L816 235L816 258L845 258L845 282L806 282L806 305L778 305L778 329L816 329L816 352L826 352L826 376L826 376L826 399L787 399L787 423L864 423L864 446L816 446L816 470L806 470L806 493L787 493L787 517L845 517L845 540L797 540Z" fill="#a60082"></path><path d="M633 540L700 540L700 517L661 517L661 493L661 493L661 470L719 470L719 446L767 446L767 423L633 423L633 399L633 399L633 376L633 376L633 352L652 352L652 329L633 329L633 305L709 305L709 282L671 282L671 258L633 258L633 235L565 235L565 211L700 211L700 188L671 188L671 164L642 164L642 141L700 141L700 117L700 117L700 94L671 94L671 70L719 70L719 47L709 47L709 23L604 23L604 0L653 0L653 23L768 23L768 47L739 47L739 70L701 70L701 94L749 94L749 117L758 117L758 141L682 141L682 164L710 164L710 188L730 188L730 211L624 211L624 235L672 235L672 258L710 258L710 282L749 282L749 305L662 305L662 329L691 329L691 352L682 352L682 376L662 376L662 399L672 399L672 423L797 423L797 446L749 446L749 470L691 470L691 493L720 493L720 517L720 517L720 540L653 540Z" fill="#72008d"></path><path d="M431 540L469 540L469 517L546 517L546 493L517 493L517 470L469 470L469 446L469 446L469 423L393 423L393 399L412 399L412 376L431 376L431 352L469 352L469 329L431 329L431 305L373 305L373 282L421 282L421 258L383 258L383 235L421 235L421 211L450 211L450 188L517 188L517 164L489 164L489 141L441 141L441 117L604 117L604 94L556 94L556 70L517 70L517 47L594 47L594 23L412 23L412 0L605 0L605 23L710 23L710 47L720 47L720 70L672 70L672 94L701 94L701 117L701 117L701 141L643 141L643 164L672 164L672 188L701 188L701 211L566 211L566 235L634 235L634 258L672 258L672 282L710 282L710 305L634 305L634 329L653 329L653 352L634 352L634 376L634 376L634 399L634 399L634 423L768 423L768 446L720 446L720 470L662 470L662 493L662 493L662 517L701 517L701 540L634 540Z" fill="#560090"></path><path d="M335 540L354 540L354 517L325 517L325 493L325 493L325 470L335 470L335 446L335 446L335 423L268 423L268 399L316 399L316 376L220 376L220 352L297 352L297 329L268 329L268 305L249 305L249 282L316 282L316 258L249 258L249 235L268 235L268 211L297 211L297 188L335 188L335 164L210 164L210 141L277 141L277 117L287 117L287 94L354 94L354 70L287 70L287 47L277 47L277 23L239 23L239 0L413 0L413 23L595 23L595 47L518 47L518 70L557 70L557 94L605 94L605 117L442 117L442 141L490 141L490 164L518 164L518 188L451 188L451 211L422 211L422 235L384 235L384 258L422 258L422 282L374 282L374 305L432 305L432 329L470 329L470 352L432 352L432 376L413 376L413 399L394 399L394 423L470 423L470 446L470 446L470 470L518 470L518 493L547 493L547 517L470 517L470 540L432 540Z" fill="#560090"></path><path d="M239 540L220 540L220 517L229 517L229 493L220 493L220 470L239 470L239 446L229 446L229 423L181 423L181 399L220 399L220 376L172 376L172 352L220 352L220 329L191 329L191 305L210 305L210 282L239 282L239 258L210 258L210 235L210 235L210 211L201 211L201 188L258 188L258 164L133 164L133 141L220 141L220 117L220 117L220 94L239 94L239 70L210 70L210 47L220 47L220 23L181 23L181 0L240 0L240 23L278 23L278 47L288 47L288 70L355 70L355 94L288 94L288 117L278 117L278 141L211 141L211 164L336 164L336 188L298 188L298 211L269 211L269 235L250 235L250 258L317 258L317 282L250 282L250 305L269 305L269 329L298 329L298 352L221 352L221 376L317 376L317 399L269 399L269 423L336 423L336 446L336 446L336 470L326 470L326 493L326 493L326 517L355 517L355 540L336 540Z" fill="#72008d"></path><path d="M162 540L191 540L191 517L191 517L191 493L172 493L172 470L172 470L172 446L172 446L172 423L162 423L162 399L191 399L191 376L114 376L114 352L172 352L172 329L143 329L143 305L143 305L143 282L172 282L172 258L153 258L153 235L181 235L181 211L143 211L143 188L220 188L220 164L95 164L95 141L181 141L181 117L191 117L191 94L181 94L181 70L143 70L143 47L201 47L201 23L133 23L133 0L182 0L182 23L221 23L221 47L211 47L211 70L240 70L240 94L221 94L221 117L221 117L221 141L134 141L134 164L259 164L259 188L202 188L202 211L211 211L211 235L211 235L211 258L240 258L240 282L211 282L211 305L192 305L192 329L221 329L221 352L173 352L173 376L221 376L221 399L182 399L182 423L230 423L230 446L240 446L240 470L221 470L221 493L230 493L230 517L221 517L221 540L240 540Z" fill="#a60082"></path><path d="M105 540L114 540L114 517L124 517L124 493L114 493L114 470L124 470L124 446L95 446L95 423L114 423L114 399L143 399L143 376L76 376L76 352L95 352L95 329L95 329L95 305L76 305L76 282L95 282L95 258L85 258L85 235L105 235L105 211L57 211L57 188L143 188L143 164L66 164L66 141L143 141L143 117L133 117L133 94L105 94L105 70L95 70L95 47L153 47L153 23L95 23L95 0L134 0L134 23L202 23L202 47L144 47L144 70L182 70L182 94L192 94L192 117L182 117L182 141L96 141L96 164L221 164L221 188L144 188L144 211L182 211L182 235L154 235L154 258L173 258L173 282L144 282L144 305L144 305L144 329L173 329L173 352L115 352L115 376L192 376L192 399L163 399L163 423L173 423L173 446L173 446L173 470L173 470L173 493L192 493L192 517L192 517L192 540L163 540Z" fill="#cc2077"></path><path d="M57 540L47 540L47 517L76 517L76 493L76 493L76 470L66 470L66 446L37 446L37 423L76 423L76 399L105 399L105 376L57 376L57 352L37 352L37 329L66 329L66 305L28 305L28 282L76 282L76 258L28 258L28 235L47 235L47 211L37 211L37 188L85 188L85 164L37 164L37 141L85 141L85 117L114 117L114 94L85 94L85 70L37 70L37 47L95 47L95 23L37 23L37 0L96 0L96 23L154 23L154 47L96 47L96 70L106 70L106 94L134 94L134 117L144 117L144 141L67 141L67 164L144 164L144 188L58 188L58 211L106 211L106 235L86 235L86 258L96 258L96 282L77 282L77 305L96 305L96 329L96 329L96 352L77 352L77 376L144 376L144 399L115 399L115 423L96 423L96 446L125 446L125 470L115 470L115 493L125 493L125 517L115 517L115 540L106 540Z" fill="#e74a6d"></path><path d="M0 540L0 540L0 517L0 517L0 493L0 493L0 470L0 470L0 446L0 446L0 423L0 423L0 399L0 399L0 376L0 376L0 352L0 352L0 329L0 329L0 305L0 305L0 282L0 282L0 258L0 258L0 235L0 235L0 211L0 211L0 188L0 188L0 164L0 164L0 141L0 141L0 117L0 117L0 94L0 94L0 70L0 70L0 47L0 47L0 23L0 23L0 0L38 0L38 23L96 23L96 47L38 47L38 70L86 70L86 94L115 94L115 117L86 117L86 141L38 141L38 164L86 164L86 188L38 188L38 211L48 211L48 235L29 235L29 258L77 258L77 282L29 282L29 305L67 305L67 329L38 329L38 352L58 352L58 376L106 376L106 399L77 399L77 423L38 423L38 446L67 446L67 470L77 470L77 493L77 493L77 517L48 517L48 540L58 540Z" fill="#fa7268"></path></svg>