<svg id="visual" viewBox="0 0 900 450" width="900" height="450" xmlns="http://www.w3.org/2000/svg" xmlns:xlink="http://www.w3.org/1999/xlink" version="1.1"><path d="M0 24L12.5 21.7C25 19.3 50 14.7 75 12.3C100 10 125 10 150 12.3C175 14.7 200 19.3 225 21.7C250 24 275 24 300 22.5C325 21 350 18 375 15.7C400 13.3 425 11.7 450 12.3C475 13 500 16 525 16.8C550 17.7 575 16.3 600 16.3C625 16.3 650 17.7 675 19.2C700 20.7 725 22.3 750 23.2C775 24 800 24 825 21.7C850 19.3 875 14.7 887.5 12.3L900 10L900 0L887.5 0C875 0 850 0 825 0C800 0 775 0 750 0C725 0 700 0 675 0C650 0 625 0 600 0C575 0 550 0 525 0C500 0 475 0 450 0C425 0 400 0 375 0C350 0 325 0 300 0C275 0 250 0 225 0C200 0 175 0 150 0C125 0 100 0 75 0C50 0 25 0 12.5 0L0 0Z" fill="#8c07d9"></path><path d="M0 37L12.5 37.8C25 38.7 50 40.3 75 41.2C100 42 125 42 150 42C175 42 200 42 225 41.2C250 40.3 275 38.7 300 37.8C325 37 350 37 375 37.8C400 38.7 425 40.3 450 41.2C475 42 500 42 525 39.7C550 37.3 575 32.7 600 31.8C625 31 650 34 675 38.5C700 43 725 49 750 52C775 55 800 55 825 49.8C850 44.7 875 34.3 887.5 29.2L900 24L900 8L887.5 10.3C875 12.7 850 17.3 825 19.7C800 22 775 22 750 21.2C725 20.3 700 18.7 675 17.2C650 15.7 625 14.3 600 14.3C575 14.3 550 15.7 525 14.8C500 14 475 11 450 10.3C425 9.7 400 11.3 375 13.7C350 16 325 19 300 20.5C275 22 250 22 225 19.7C200 17.3 175 12.7 150 10.3C125 8 100 8 75 10.3C50 12.7 25 17.3 12.5 19.7L0 22Z" fill="#4c2fba"></path><path d="M0 51L12.5 51.7C25 52.3 50 53.7 75 55.8C100 58 125 61 150 61C175 61 200 58 225 57.3C250 56.7 275 58.3 300 57.7C325 57 350 54 375 54C400 54 425 57 450 58.5C475 60 500 60 525 58.5C550 57 575 54 600 53.2C625 52.3 650 53.7 675 56.7C700 59.7 725 64.3 750 68.2C775 72 800 75 825 72C850 69 875 60 887.5 55.5L900 51L900 22L887.5 27.2C875 32.3 850 42.7 825 47.8C800 53 775 53 750 50C725 47 700 41 675 36.5C650 32 625 29 600 29.8C575 30.7 550 35.3 525 37.7C500 40 475 40 450 39.2C425 38.3 400 36.7 375 35.8C350 35 325 35 300 35.8C275 36.7 250 38.3 225 39.2C200 40 175 40 150 40C125 40 100 40 75 39.2C50 38.3 25 36.7 12.5 35.8L0 35Z" fill="#0f3292"></path><path d="M0 73L12.5 73.8C25 74.7 50 76.3 75 77.2C100 78 125 78 150 78.7C175 79.3 200 80.7 225 80.7C250 80.7 275 79.3 300 78.7C325 78 350 78 375 79.5C400 81 425 84 450 84.7C475 85.3 500 83.7 525 80.7C550 77.7 575 73.3 600 71.8C625 70.3 650 71.7 675 76.2C700 80.7 725 88.3 750 92.8C775 97.3 800 98.7 825 93.3C850 88 875 76 887.5 70L900 64L900 49L887.5 53.5C875 58 850 67 825 70C800 73 775 70 750 66.2C725 62.3 700 57.7 675 54.7C650 51.7 625 50.3 600 51.2C575 52 550 55 525 56.5C500 58 475 58 450 56.5C425 55 400 52 375 52C350 52 325 55 300 55.7C275 56.3 250 54.7 225 55.3C200 56 175 59 150 59C125 59 100 56 75 53.8C50 51.7 25 50.3 12.5 49.7L0 49Z" fill="#002963"></path><path d="M0 150L12.5 145.5C25 141 50 132 75 132C100 132 125 141 150 147C175 153 200 156 225 156.7C250 157.3 275 155.7 300 158.7C325 161.7 350 169.3 375 167.2C400 165 425 153 450 152.2C475 151.3 500 161.7 525 165.3C550 169 575 166 600 167.5C625 169 650 175 675 171.3C700 167.7 725 154.3 750 156.7C775 159 800 177 825 178.5C850 180 875 165 887.5 157.5L900 150L900 62L887.5 68C875 74 850 86 825 91.3C800 96.7 775 95.3 750 90.8C725 86.3 700 78.7 675 74.2C650 69.7 625 68.3 600 69.8C575 71.3 550 75.7 525 78.7C500 81.7 475 83.3 450 82.7C425 82 400 79 375 77.5C350 76 325 76 300 76.7C275 77.3 250 78.7 225 78.7C200 78.7 175 77.3 150 76.7C125 76 100 76 75 75.2C50 74.3 25 72.7 12.5 71.8L0 71Z" fill="#001a32"></path><path d="M0 208L12.5 204.3C25 200.7 50 193.3 75 190.3C100 187.3 125 188.7 150 193.8C175 199 200 208 225 206.5C250 205 275 193 300 197.5C325 202 350 223 375 229C400 235 425 226 450 225.3C475 224.7 500 232.3 525 234.7C550 237 575 234 600 231C625 228 650 225 675 219.7C700 214.3 725 206.7 750 207.3C775 208 800 217 825 221.5C850 226 875 226 887.5 226L900 226L900 148L887.5 155.5C875 163 850 178 825 176.5C800 175 775 157 750 154.7C725 152.3 700 165.7 675 169.3C650 173 625 167 600 165.5C575 164 550 167 525 163.3C500 159.7 475 149.3 450 150.2C425 151 400 163 375 165.2C350 167.3 325 159.7 300 156.7C275 153.7 250 155.3 225 154.7C200 154 175 151 150 145C125 139 100 130 75 130C50 130 25 139 12.5 143.5L0 148Z" fill="#001220"></path><path d="M0 289L12.5 291.3C25 293.7 50 298.3 75 301.3C100 304.3 125 305.7 150 309.3C175 313 200 319 225 314.5C250 310 275 295 300 293.5C325 292 350 304 375 310.8C400 317.7 425 319.3 450 315.7C475 312 500 303 525 296.2C550 289.3 575 284.7 600 287.7C625 290.7 650 301.3 675 307.3C700 313.3 725 314.7 750 315.3C775 316 800 316 825 316.8C850 317.7 875 319.3 887.5 320.2L900 321L900 224L887.5 224C875 224 850 224 825 219.5C800 215 775 206 750 205.3C725 204.7 700 212.3 675 217.7C650 223 625 226 600 229C575 232 550 235 525 232.7C500 230.3 475 222.7 450 223.3C425 224 400 233 375 227C350 221 325 200 300 195.5C275 191 250 203 225 204.5C200 206 175 197 150 191.8C125 186.7 100 185.3 75 188.3C50 191.3 25 198.7 12.5 202.3L0 206Z" fill="#001220"></path><path d="M0 312L12.5 312C25 312 50 312 75 312.7C100 313.3 125 314.7 150 319.2C175 323.7 200 331.3 225 329.2C250 327 275 315 300 314.2C325 313.3 350 323.7 375 328.8C400 334 425 334 450 330.3C475 326.7 500 319.3 525 312.7C550 306 575 300 600 302.2C625 304.3 650 314.7 675 322.2C700 329.7 725 334.3 750 334.3C775 334.3 800 329.7 825 329.7C850 329.7 875 334.3 887.5 336.7L900 339L900 319L887.5 318.2C875 317.3 850 315.7 825 314.8C800 314 775 314 750 313.3C725 312.7 700 311.3 675 305.3C650 299.3 625 288.7 600 285.7C575 282.7 550 287.3 525 294.2C500 301 475 310 450 313.7C425 317.3 400 315.7 375 308.8C350 302 325 290 300 291.5C275 293 250 308 225 312.5C200 317 175 311 150 307.3C125 303.7 100 302.3 75 299.3C50 296.3 25 291.7 12.5 289.3L0 287Z" fill="#001a32"></path><path d="M0 352L12.5 349C25 346 50 340 75 341.5C100 343 125 352 150 357.3C175 362.7 200 364.3 225 361.3C250 358.3 275 350.7 300 350.7C325 350.7 350 358.3 375 359.8C400 361.3 425 356.7 450 354.3C475 352 500 352 525 350.5C550 349 575 346 600 349C625 352 650 361 675 365.5C700 370 725 370 750 366.3C775 362.7 800 355.3 825 355.3C850 355.3 875 362.7 887.5 366.3L900 370L900 337L887.5 334.7C875 332.3 850 327.7 825 327.7C800 327.7 775 332.3 750 332.3C725 332.3 700 327.7 675 320.2C650 312.7 625 302.3 600 300.2C575 298 550 304 525 310.7C500 317.3 475 324.7 450 328.3C425 332 400 332 375 326.8C350 321.7 325 311.3 300 312.2C275 313 250 325 225 327.2C200 329.3 175 321.7 150 317.2C125 312.7 100 311.3 75 310.7C50 310 25 310 12.5 310L0 310Z" fill="#002963"></path><path d="M0 388L12.5 385C25 382 50 376 75 375.3C100 374.7 125 379.3 150 383.2C175 387 200 390 225 389.2C250 388.3 275 383.7 300 382.8C325 382 350 385 375 386.5C400 388 425 388 450 385C475 382 500 376 525 373.8C550 371.7 575 373.3 600 376.3C625 379.3 650 383.7 675 386.7C700 389.7 725 391.3 750 390.7C775 390 800 387 825 386.2C850 385.3 875 386.7 887.5 387.3L900 388L900 368L887.5 364.3C875 360.7 850 353.3 825 353.3C800 353.3 775 360.7 750 364.3C725 368 700 368 675 363.5C650 359 625 350 600 347C575 344 550 347 525 348.5C500 350 475 350 450 352.3C425 354.7 400 359.3 375 357.8C350 356.3 325 348.7 300 348.7C275 348.7 250 356.3 225 359.3C200 362.3 175 360.7 150 355.3C125 350 100 341 75 339.5C50 338 25 344 12.5 347L0 350Z" fill="#0f3292"></path><path d="M0 438L12.5 435C25 432 50 426 75 423C100 420 125 420 150 420.7C175 421.3 200 422.7 225 421.8C250 421 275 418 300 417.3C325 416.7 350 418.3 375 418.3C400 418.3 425 416.7 450 416.7C475 416.7 500 418.3 525 421.3C550 424.3 575 428.7 600 428.7C625 428.7 650 424.3 675 422.8C700 421.3 725 422.7 750 422.7C775 422.7 800 421.3 825 422.8C850 424.3 875 428.7 887.5 430.8L900 433L900 386L887.5 385.3C875 384.7 850 383.3 825 384.2C800 385 775 388 750 388.7C725 389.3 700 387.7 675 384.7C650 381.7 625 377.3 600 374.3C575 371.3 550 369.7 525 371.8C500 374 475 380 450 383C425 386 400 386 375 384.5C350 383 325 380 300 380.8C275 381.7 250 386.3 225 387.2C200 388 175 385 150 381.2C125 377.3 100 372.7 75 373.3C50 374 25 380 12.5 383L0 386Z" fill="#4c2fba"></path><path d="M0 451L12.5 451C25 451 50 451 75 451C100 451 125 451 150 451C175 451 200 451 225 451C250 451 275 451 300 451C325 451 350 451 375 451C400 451 425 451 450 451C475 451 500 451 525 451C550 451 575 451 600 451C625 451 650 451 675 451C700 451 725 451 750 451C775 451 800 451 825 451C850 451 875 451 887.5 451L900 451L900 431L887.5 428.8C875 426.7 850 422.3 825 420.8C800 419.3 775 420.7 750 420.7C725 420.7 700 419.3 675 420.8C650 422.3 625 426.7 600 426.7C575 426.7 550 422.3 525 419.3C500 416.3 475 414.7 450 414.7C425 414.7 400 416.3 375 416.3C350 416.3 325 414.7 300 415.3C275 416 250 419 225 419.8C200 420.7 175 419.3 150 418.7C125 418 100 418 75 421C50 424 25 430 12.5 433L0 436Z" fill="#8c07d9"></path></svg>